<svg width="176" height="40" fill="none" xmlns="http://www.w3.org/2000/svg"><g clip-path="url(#clip0_882_1823)" fill="#9498AB"><path fill-rule="evenodd" clip-rule="evenodd" d="M15 28a5 5 0 01-5-5V0H0v23c0 8.284 6.716 15 15 15h11V28H15zm30-18a9 9 0 100 18 9 9 0 000-18zm-19 9C26 8.507 34.507 0 45 0s19 8.507 19 19-8.507 19-19 19-19-8.507-19-19zm127-9a9 9 0 100 18 9 9 0 000-18zm-19 9c0-10.493 8.507-19 19-19s19 8.507 19 19-8.507 19-19 19-19-8.507-19-19zM85 0C74.507 0 66 8.507 66 19s8.507 19 19 19h28c1.969 0 3.868-.3 5.654-.856L124 40l5.768-10.804A19.006 19.006 0 00132 20.261V19c0-10.493-8.507-19-19-19H85zm37 19a9 9 0 00-9-9H85a9 9 0 000 18h28a8.997 8.997 0 009-8.93V19z"/><path d="M176 2.5a2.5 2.5 0 11-4.998.001A2.5 2.5 0 01176 2.5z"/></g><defs><clipPath id="clip0_882_1823"><path fill="#fff" d="M0 0h176v40H0z"/></clipPath></defs></svg>