<svg width="17" height="20" fill="none" xmlns="http://www.w3.org/2000/svg"><g clip-path="url(#clip0_904_1857)"><path d="M3.807 16.992H.284V5.649h3.523M2.044 4.1C.917 4.1.004 3.167.004 2.04a2.041 2.041 0 014.08 0c0 1.127-.914 2.06-2.04 2.06zm14.948 12.892h-3.515V11.47c0-1.316-.026-3.004-1.832-3.004-1.831 0-2.112 1.43-2.112 2.91v5.617H6.014V5.647h3.379v1.547h.05c.47-.891 1.618-1.832 3.332-1.832 3.566 0 4.221 2.348 4.221 5.398v6.232" fill="#fff"/></g><defs><clipPath id="clip0_904_1857"><path fill="#fff" d="M0 0h17v19.42H0z"/></clipPath></defs></svg>