<svg width="40" height="40" fill="none" xmlns="http://www.w3.org/2000/svg"><path d="M11.719.773c-2.742.602-4.79 2.532-5.563 5.22-.242.827-.258 2.75-.031 3.57.453 1.671 1.54 3.265 2.836 4.164l.414.28v1.736l-2.32-2.32c-2.578-2.57-2.664-2.633-3.547-2.64-.656 0-1.156.241-1.703.82-.524.554-.735 1.03-.735 1.64 0 .914-.047.86 4.32 5.235l3.985 3.984v7.906c0 5.399.023 7.977.086 8.125.11.297.445.649.75.774.21.093 2.492.109 13.945.109 13.282 0 13.703-.008 14.024-.148.203-.094.406-.274.547-.485l.218-.336.024-15.773c.008-11.313-.008-15.867-.07-16.102-.07-.273-.415-.656-2.32-2.57-1.235-1.242-2.376-2.32-2.532-2.406-.281-.14-.563-.149-8.953-.149h-8.672l-.43-.195C14.782.68 12.984.492 11.72.773zm2.531 1.211c1.203.235 2.125.735 3.063 1.649.718.71 1.171 1.422 1.484 2.344.281.828.351 2.328.148 3.187-.125.555-.765 2.008-.883 2.008-.03 0-.195-.266-.359-.594-.383-.742-1.195-1.586-1.945-2.015l-.524-.305.196-.266c.117-.14.297-.46.414-.71.281-.602.289-1.555.023-2.22-.242-.632-.828-1.242-1.476-1.562-.477-.234-.579-.258-1.266-.25-.625 0-.805.031-1.172.203a3.088 3.088 0 00-1.719 2.195c-.148.727.055 1.61.516 2.211.149.188.266.36.266.375 0 .016-.211.157-.47.313-.944.555-1.546 1.195-2.07 2.164l-.257.484-.203-.304c-.5-.766-.828-1.97-.828-3.063.007-1.617.578-3.008 1.718-4.156 1.438-1.453 3.375-2.063 5.344-1.688zM33.125 4.57c0 2.79-.14 2.649 2.68 2.68l1.93.023-.016 15.407-.024 15.406-13.53.023-13.54.016V23.711l.719.719c.398.39.797.742.883.789.18.093 3.265.93 3.515.953.453.047.742-.164.742-.54 0-.124-.21-1.015-.468-1.968l-.461-1.742-2.469-2.469-2.461-2.46V14.64l.727.187c1 .266 2.453.274 3.445.031 2.508-.625 4.453-2.453 5.234-4.93.352-1.117.39-2.78.086-3.921-.219-.813-.851-2.04-1.406-2.727l-.508-.625h14.922V4.57zm2.5.235l1.211 1.21h-2.461v-1.21c0-.664.008-1.211.023-1.211.008 0 .563.547 1.227 1.21zm-21.727-.149a1.672 1.672 0 01.54 2.563c-.704.86-2.063.797-2.688-.125-.469-.688-.39-1.555.18-2.11.586-.57 1.258-.68 1.969-.328zm.415 4.64c.874.267 1.757.954 2.234 1.727.172.29.484 1.102.484 1.282 0 .11-1.101.828-1.601 1.03-1.172.493-2.664.595-3.82.267-.72-.196-1.704-.688-2.11-1.047l-.289-.25.117-.39c.14-.47.586-1.235.93-1.587 1.008-1.039 2.664-1.46 4.055-1.031zm-10.32 2.868c.116.07.234.172.257.227.016.046-.312.43-.734.851-.696.695-.782.758-.907.656a1.296 1.296 0 01-.242-.367c-.156-.375-.023-.703.446-1.14.43-.407.765-.47 1.18-.227zm5.687 5.61l4.422 4.413-.805.797-.797.805-4.453-4.453-4.453-4.453.758-.758c.421-.422.796-.766.836-.766.046 0 2.062 1.985 4.492 4.414zm5.117 6.187c.07.266.148.547.18.617.054.149.007.14-.829-.101l-.414-.118.454-.46c.25-.25.46-.446.468-.438.008.008.07.234.14.5z" fill="#F65E01"/><path d="M30.078 10.758c-.062.023-.765.422-1.562.867-1.805 1.031-3.235 1.719-4.336 2.102l-.86.297-2.039.039-2.031.039-.586.289a3.597 3.597 0 00-1.656 1.68c-.235.5-.25.578-.25 1.43 0 .85.015.929.25 1.429.523 1.117 1.633 1.898 2.805 1.984l.562.047.031 1.766c.024 1.648.04 1.789.203 2.125.375.758 1.04 1.21 1.914 1.297.594.054.86 0 1.07-.211.15-.149.157-.274.157-2.5 0-1.29.016-2.344.031-2.344.024 0 .328.094.688.203 1.328.414 2.843 1.156 4.656 2.273.445.274.953.532 1.133.579.625.164 1.297-.172 1.617-.797.14-.266.156-.461.156-1.93V19.79l.367-.14c.196-.079.516-.297.711-.485.477-.476.672-.945.672-1.625a2.245 2.245 0 00-1.406-2.125l-.344-.14v-1.711c0-1.586-.015-1.743-.164-2.063-.234-.469-.664-.742-1.226-.773-.25-.008-.5 0-.563.031zm.688 6.672c.015 6.203.078 5.758-.664 5.265l-.415-.273v-10l.375-.234c.204-.133.438-.227.524-.22.156.024.156.087.18 5.462zm-2.328-.031v4.28l-1.196-.585c-1.062-.524-2.523-1.07-3.234-1.211l-.258-.055v-4.656l.648-.21c.922-.298 2.149-.829 3.141-1.368.477-.25.867-.461.883-.469.008 0 .015 1.922.015 4.274zM22.5 17.5v2.188h-1.422c-1.336 0-1.453-.016-1.82-.188-1.344-.617-1.703-2.242-.781-3.453.109-.14.414-.36.671-.492l.485-.242H22.5V17.5zm10.008-.25c.11.344 0 .766-.281 1.031l-.196.18v-1.844l.196.18c.101.094.234.305.28.453zM22.5 22.93v1.992l-.25-.102a1.075 1.075 0 01-.406-.32c-.149-.195-.164-.336-.188-1.781-.015-.86-.008-1.617.016-1.672.031-.07.172-.11.437-.11h.391v1.993zm11.875-9.211c-.633.609-.766.859-.61 1.18.126.265.454.437.72.367.101-.024.437-.305.742-.618.633-.648.703-.906.36-1.25-.337-.343-.603-.273-1.212.32zm.891 3.226c-.22.094-.422.383-.422.602 0 .094.07.258.164.375.156.195.18.203 1.047.203s.89-.008 1.047-.203c.226-.281.21-.586-.04-.82-.18-.165-.28-.188-.914-.204-.398-.015-.796.008-.882.047zm-1.328 2.852c-.266.117-.344.25-.344.61 0 .343 1.047 1.39 1.39 1.39.352 0 .641-.266.641-.602 0-.242-.078-.351-.563-.843-.312-.32-.64-.594-.726-.618-.086-.023-.266.008-.398.063zM15.352 27.54a.609.609 0 00-.196.429c0 .148.07.312.196.43l.187.195h17.188l.21-.18a.522.522 0 00.211-.445.522.522 0 00-.21-.446l-.211-.18H15.539l-.187.196zm0 3.358a.61.61 0 00-.196.43c0 .149.07.313.196.43l.187.195h17.188l.21-.18a.522.522 0 00.211-.445.522.522 0 00-.21-.445l-.211-.18H15.539l-.187.195zm0 3.36a.61.61 0 00-.196.43c0 .148.07.312.196.43l.187.194h17.188l.21-.18a.522.522 0 00.211-.444.522.522 0 00-.21-.446l-.211-.18H15.539l-.187.196z" fill="#F65E01"/></svg>