<svg width="40" height="40" fill="none" xmlns="http://www.w3.org/2000/svg"><path d="M5.509.086a6.69 6.69 0 00-3.583 1.858 6.537 6.537 0 00.989 10.073c.672.45 1.716.893 2.34.996.167.024.388.063.491.087l.174.032v3.526c0 3.7.016 3.882.356 4.016.071.024.91.048 1.867.048h1.732v.213c0 .261.245.696.45.799.08.04.333.119.562.182.388.095.42.118.499.419.079.3.079.324-.159.522-.72.585-.735.98-.07 2.119.774 1.352.964 1.478 1.85 1.249l.467-.119.213.214.214.213-.119.467c-.23.885-.103 1.075 1.25 1.85 1.13.656 1.518.648 2.112-.024.237-.269.26-.277.545-.206.277.08.309.12.404.499.063.229.142.482.182.561.11.213.546.45.838.45h.253v2.689h-6.24l-.056-.3c-.403-2.372-1.874-4.254-4.01-5.14-1.66-.696-3.828-.632-5.394.158-2.365 1.194-3.812 3.7-3.654 6.31.063.948.285 1.747.727 2.609 2.041 3.937 7.317 4.76 10.44 1.629.681-.68 1.1-1.305 1.44-2.143.222-.553.309-.854.467-1.676l.032-.182h7.127l.189-.198.198-.19V30.13h.26c.285 0 .72-.236.831-.45.04-.08.119-.332.174-.553.087-.38.119-.42.38-.499.269-.07.308-.055.57.19.735.696.972.696 2.12.032 1.352-.775 1.478-.965 1.249-1.85l-.119-.467.214-.213.213-.214.467.119c.886.23 1.076.103 1.85-1.25.665-1.146.657-1.462-.047-2.087-.26-.229-.269-.245-.182-.553.08-.3.111-.324.499-.42.23-.062.482-.142.561-.181.206-.103.451-.538.451-.799v-.213h2.689v6.167l-.213.04c-1.258.237-1.985.521-2.856 1.099-2.768 1.834-3.685 5.676-2.056 8.586.894 1.59 2.27 2.665 4.081 3.178.878.253 2.484.253 3.362 0 1.155-.332 2.127-.893 2.942-1.715a6.526 6.526 0 000-9.25 7.814 7.814 0 00-1.028-.87c-.562-.372-1.566-.791-2.175-.91a21.728 21.728 0 01-.61-.126l-.173-.032-.024-3.526-.024-3.527-.221-.19c-.222-.19-.237-.19-1.962-.19h-1.732v-.3c0-.316-.221-.75-.45-.87a4.737 4.737 0 00-.562-.181c-.388-.095-.42-.119-.499-.42-.079-.292-.07-.315.15-.497.34-.261.57-.664.57-1.004 0-.222-.126-.522-.49-1.139-.775-1.352-.965-1.478-1.851-1.25l-.467.12-.213-.214-.214-.213.119-.467c.23-.886.103-1.075-1.25-1.85-1.004-.585-1.281-.625-1.78-.261-.181.127-.38.308-.442.403-.103.15-.15.158-.427.087-.293-.079-.317-.11-.412-.498a4.71 4.71 0 00-.182-.561c-.11-.214-.546-.45-.83-.45h-.261v-2.69h6.24l.056.292c.403 2.388 1.866 4.262 4.01 5.148 1.787.75 4.018.616 5.687-.325 3.053-1.731 4.247-5.534 2.697-8.618-.388-.775-.68-1.186-1.25-1.755C37.257 1.122 36.285.56 35.13.228c-.878-.253-2.484-.253-3.362 0-1.85.53-3.227 1.621-4.12 3.266-.301.553-.689 1.692-.689 2.032a.75.75 0 01-.063.308c-.047.071-.933.103-3.646.119l-3.583.023-.15.19c-.135.166-.15.332-.15 1.953V9.89h-.254c-.293 0-.727.237-.838.45-.04.08-.119.333-.182.562-.095.388-.119.42-.412.498-.3.08-.316.071-.545-.197-.562-.68-.973-.688-2.104-.032-1.353.775-1.48.965-1.25 1.85l.119.466-.214.214-.213.213-.467-.118c-.886-.23-1.076-.103-1.85 1.25-.365.616-.491.916-.491 1.138 0 .34.23.743.57 1.004.22.182.229.205.15.498-.08.3-.111.324-.499.419-.23.063-.482.142-.561.182-.23.118-.451.553-.451.87v.3H7.186V13.14l.3-.048c2.824-.482 4.967-2.522 5.521-5.258.285-1.423.008-3.178-.704-4.443C10.943.987 8.174-.365 5.51.086zm2.586 1.423c1.353.42 2.587 1.463 3.196 2.696 1.97 4.001-1.503 8.46-5.885 7.543-.925-.198-1.788-.672-2.531-1.415-1.123-1.115-1.582-2.206-1.582-3.764 0-.79.032-1.004.23-1.605.6-1.834 2.048-3.146 3.962-3.581.665-.15 1.906-.095 2.61.126zm27.003.048a5.318 5.318 0 013.377 3.4c.198.608.23.822.23 1.612 0 .728-.04 1.028-.182 1.503-.23.727-.61 1.423-1.052 1.929l-.34.387-.135-.64c-.213-.98-.64-1.684-1.336-2.206-.34-.253-.38-.309-.285-.411.23-.261.522-.95.57-1.36.134-1.155-.697-2.388-1.828-2.688-.466-.127-1.36-.048-1.763.158-1.408.72-1.867 2.474-.973 3.708l.237.324-.261.158c-.704.435-1.313 1.407-1.487 2.38l-.11.577-.357-.403c-1.036-1.146-1.479-2.933-1.139-4.554.34-1.605 1.622-3.131 3.156-3.748a5.355 5.355 0 013.678-.126zm-1.107 2.838c.799.403.933 1.384.285 2.016-.238.23-.34.269-.744.3-.38.024-.522 0-.735-.126-.325-.198-.617-.696-.617-1.036 0-.482.34-1.027.751-1.193.253-.111.823-.087 1.06.04zm.38 3.835c.482.205 1.004.727 1.218 1.21.126.3.19.608.213 1.138l.032.735-.38.166c-1.202.514-3.093.498-4.137-.047-.245-.119-.245-.135-.245-.736 0-.34.056-.798.119-1.02.142-.482.704-1.138 1.17-1.383a2.44 2.44 0 012.01-.063zm-13.565 3.447c.079.26.205.538.284.609.135.126 1.495.53 1.78.53.08 0 .34-.182.57-.404l.427-.403.514.285c.285.158.538.324.561.363.032.048-.008.285-.079.53-.07.245-.11.53-.079.64.064.254 1.013 1.242 1.313 1.36.19.08.317.08.704-.031.261-.08.506-.119.546-.087.04.023.205.276.364.561l.292.514-.403.427c-.222.237-.403.49-.403.57 0 .284.403 1.644.53 1.778.07.08.348.206.609.285l.482.142v1.328l-.482.143c-.261.079-.538.205-.61.285-.126.134-.53 1.494-.53 1.778 0 .08.182.332.404.57l.403.427-.292.514c-.159.284-.325.537-.364.569-.04.023-.277-.016-.522-.087s-.53-.11-.64-.08c-.254.064-1.243 1.013-1.361 1.313-.08.19-.08.316.031.704.08.26.119.506.087.546-.023.039-.276.205-.561.363l-.514.293-.427-.404c-.238-.22-.49-.403-.57-.403-.285 0-1.645.404-1.78.53-.079.071-.205.348-.284.609l-.143.482h-1.328l-.143-.482c-.079-.261-.205-.538-.285-.609-.134-.127-1.494-.53-1.78-.53-.078 0-.331.182-.569.404l-.427.403-.514-.293c-.285-.158-.538-.324-.561-.364-.032-.039.008-.284.087-.545.11-.387.11-.514.031-.704-.118-.3-1.107-1.249-1.36-1.312-.11-.032-.396.008-.64.079-.246.071-.483.11-.523.087-.04-.032-.206-.285-.364-.57l-.292-.513.403-.427c.222-.238.403-.49.403-.57 0-.284-.403-1.644-.53-1.778-.07-.08-.348-.206-.609-.285l-.482-.143v-1.328l.482-.142c.261-.08.538-.206.61-.285.126-.134.53-1.494.53-1.779 0-.079-.182-.332-.404-.569l-.403-.427.292-.514c.158-.285.324-.538.364-.561.04-.032.285.008.546.087.387.11.514.11.704.031.3-.118 1.25-1.106 1.313-1.36.031-.11-.008-.395-.08-.64-.07-.245-.11-.482-.078-.53.023-.04.276-.205.561-.363l.514-.285.427.403c.23.222.49.403.57.403.285 0 1.645-.403 1.78-.53.079-.07.205-.331.268-.569a6.15 6.15 0 01.167-.506c.023-.031.324-.047.68-.04l.64.025.143.482zM7.85 28.312c2.776.704 4.477 3.463 3.884 6.278-.198.94-.673 1.795-1.408 2.538-1.123 1.123-2.215 1.581-3.773 1.581-.791 0-1.005-.031-1.614-.23a5.325 5.325 0 01-3.417-3.423c-.197-.6-.229-.814-.229-1.605 0-1.557.459-2.656 1.574-3.755 1.353-1.344 3.18-1.85 4.983-1.384zm26.892 0c.934.237 1.653.648 2.389 1.384 1.115 1.099 1.574 2.198 1.574 3.755 0 .791-.032 1.005-.23 1.613a5.325 5.325 0 01-3.424 3.416c-.601.198-.815.23-1.606.23-1.558 0-2.657-.46-3.757-1.574-1.044-1.052-1.542-2.254-1.542-3.685 0-3.439 3.274-5.993 6.596-5.139z" fill="#F65E01"/><path d="M4.148 2.94l-.221.174.032 1.273c.023 1.336.079 1.566.474 2l.158.174-.213.277c-.364.475-.427.783-.435 2.032 0 1.629-.237 1.495 2.657 1.495h2.302l.166-.182c.166-.174.174-.261.174-1.329-.008-1.233-.071-1.541-.435-2.016l-.213-.277.158-.173c.395-.435.45-.665.474-2l.032-1.274-.221-.174c-.206-.158-.285-.166-2.445-.166-2.159 0-2.238.008-2.444.166zm3.829 1.692c0 1.052-.27 1.305-1.385 1.305s-1.384-.253-1.384-1.305V4.04h2.769v.593zM7.455 7.32c.387.19.522.483.522 1.179v.6H5.208v-.6c0-.688.127-.989.507-1.17.332-.167 1.4-.167 1.74-.009zm11.389 8.73c-1.313.37-2.444 1.517-2.808 2.837-.735 2.633 1.234 5.235 3.963 5.235 1.155 0 2.056-.38 2.895-1.218 1.297-1.297 1.59-3.107.775-4.768-.27-.553-.997-1.328-1.566-1.676-.91-.545-2.223-.711-3.259-.41zm2.357 1.367a3.043 3.043 0 011.392 1.391c.182.388.214.554.214 1.202 0 .648-.032.815-.214 1.202a3.042 3.042 0 01-1.392 1.392c-.387.181-.554.213-1.202.213-.649 0-.815-.032-1.202-.213-1.59-.744-2.136-2.736-1.163-4.207.308-.458.751-.806 1.32-1.051.633-.261 1.598-.238 2.247.07zM8.427 30.502c-.031.024-.055 1.234-.055 2.688v2.633h1.266v-5.376H9.06c-.324 0-.609.024-.633.055zM5.92 33.728v2.095h1.266v-4.19H5.92v2.095zm-2.452.632v1.463h1.266v-2.925H3.468v1.462zm29.78-4.917a.775.775 0 00-.254.49c-.031.285-.07.332-.371.459a2.144 2.144 0 00-1.116 2.94c.348.712 1.029 1.116 2.049 1.195.364.031.688.11.838.197.728.451.348 1.574-.53 1.574-.482 0-.79-.158-1.25-.625-.331-.34-.434-.403-.68-.403-.229 0-.34.047-.458.205-.095.119-.166.285-.166.372 0 .387.727 1.162 1.384 1.47.332.159.356.182.356.49 0 .23.055.364.198.507.403.411 1.067.118 1.067-.467 0-.253.032-.284.42-.466.996-.459 1.494-1.447 1.25-2.475-.23-.949-.958-1.486-2.168-1.613-.728-.07-.878-.126-1.115-.387-.198-.222-.198-.822.008-1.052.522-.577 1.289-.466 1.985.285.19.198.435.387.546.411.427.11.822-.324.712-.775-.088-.324-.72-.964-1.234-1.241-.467-.245-.483-.261-.483-.57 0-.6-.553-.893-.988-.521z" fill="#F65E01"/></svg>