<svg width="40" height="40" fill="none" xmlns="http://www.w3.org/2000/svg"><g clip-path="url(#clip0_774_647)"><path d="M23.36.047c-.11.015-.508.07-.899.117-.383.047-1.125.195-1.64.32-5.9 1.477-10.391 6.368-11.407 12.407-.18 1.062-.242 3.101-.125 4.117.133 1.101.43 2.445.766 3.422.562 1.648 1.672 3.601 2.75 4.843.258.297.469.57.476.594 0 .031-.265.29-.594.578l-.585.532-.446-.438c-.687-.68-1.273-.836-1.93-.531-.21.101-1.765 1.61-4.851 4.703C-.164 35.773.031 35.53.047 36.563c.008.796.203 1.124 1.258 2.187.773.766.992.938 1.375 1.078.539.203.984.219 1.508.047.343-.117.82-.563 5.015-4.75 2.547-2.54 4.68-4.703 4.735-4.813.343-.656.18-1.304-.5-1.992l-.47-.476.579-.57.586-.579.57.485c2.211 1.883 4.985 3.086 8.055 3.484.742.102.875.102 1.07 0 .36-.187.43-.61.14-.883-.14-.125-.382-.187-1.077-.281-1.68-.219-2.922-.586-4.422-1.297-1.664-.789-2.93-1.719-4.25-3.101-2.024-2.133-3.32-4.883-3.711-7.86-.703-5.398 1.672-10.633 6.21-13.68.876-.593 2.5-1.374 3.477-1.687 2.485-.79 4.828-.906 7.367-.383l.797.172v1.531l-.398-.117c-1.188-.351-2.922-.523-4.313-.414-5.093.383-9.539 3.844-11.187 8.695-1.18 3.485-.719 7.555 1.219 10.688.812 1.312 2.078 2.719 3.234 3.586 3.094 2.328 7.188 3.125 10.984 2.14 3.532-.914 6.61-3.484 8.235-6.867.867-1.82 1.219-3.422 1.219-5.554 0-2.938-1-5.758-2.828-7.985l-.462-.554V4.828l.5.461c1 .906 2.032 2.336 2.813 3.89 1.906 3.782 1.906 8.532.008 12.423-2.078 4.25-5.938 7.093-10.664 7.851-.32.055-.649.125-.719.164-.352.188-.36.758-.016.985.164.109.266.109.797.03 3.274-.507 6.078-1.866 8.407-4.077 4.906-4.64 6.195-11.992 3.171-18.04-.953-1.898-2.28-3.593-3.765-4.82l-.532-.43V2.079c0-1.36-.078-1.601-.593-1.898-.29-.172-.383-.18-2.203-.18-1.72 0-1.922.016-2.196.148a2.247 2.247 0 00-.383.258c-.07.094-.226.078-.968-.07a24.698 24.698 0 00-1.657-.258c-.718-.07-2.273-.094-2.703-.031zm9.546 7.648l.024 6.516.172.172c.203.21.601.226.789.039.117-.117.14-.43.172-2.922l.039-2.79.297.47c1.867 2.93 2.312 6.703 1.187 10.008-.25.734-.867 1.992-1.227 2.515l-.257.367-.04-2.836c-.038-2.695-.046-2.843-.187-2.953-.219-.156-.539-.133-.758.04l-.187.148-.024 3.554-.023 3.563-.406.367c-.828.742-2.555 1.906-2.844 1.906-.086 0-.102-2.023-.102-12.289 0-6.765.024-12.32.055-12.343.023-.032.781-.055 1.672-.055h1.633l.015 6.523zm-5.875-3.64c1.57.367 1.555.383-.43.39-1.976.008-2.148.047-2.5.508-.14.195-.156.36-.195 2.063l-.039 1.851-1.875.04c-2.687.054-2.562-.063-2.617 2.577l-.039 1.836-1.89.04c-1.75.038-1.907.046-2.11.203-.5.367-.492.32-.492 4.406-.008 4.242.055 4.023-.703 2.46-.867-1.788-1.133-2.968-1.125-5 0-1.148.039-1.554.18-2.226 1.023-4.812 4.617-8.36 9.343-9.226 1.078-.204 3.508-.157 4.492.078zm1.313 11.976l-.024 10.407-.664.18c-.578.163-2.039.405-2.437.413-.133 0-.14-.562-.14-10.703V5.625h3.28l-.015 10.406zm-4.453 2.5l-.024 8.461-.39-.023c-.586-.04-1.563-.227-2.282-.453l-.648-.196V10.078h3.36l-.016 8.453zm-4.516 1.633v5.633l-.445-.25a11.617 11.617 0 01-2.242-1.656l-.672-.625V14.53h3.359v5.633zm-7.633 8.102c.672.68 1.227 1.28 1.227 1.343 0 .055-.383.493-.86.97l-.859.866-1.367-1.367-1.367-1.367.836-.836c.523-.531.898-.844 1-.844.109 0 .601.438 1.39 1.235zM9.047 30.96l1.344 1.344-.414.414-.407.406-1.367-1.367-1.367-1.367.39-.391c.212-.21.407-.39.43-.39.024 0 .649.609 1.39 1.35zm-1.64 1.64l1.343 1.344-2.367 2.36c-1.328 1.336-2.461 2.398-2.594 2.445-.492.188-.734.055-1.656-.883-.906-.922-1.024-1.133-.922-1.64.047-.196.578-.774 2.406-2.618 1.297-1.297 2.375-2.359 2.399-2.359.023 0 .648.61 1.39 1.352z" fill="#F65E01"/></g><defs><clipPath id="clip0_774_647"><path fill="#fff" d="M0 0h40v40H0z"/></clipPath></defs></svg>