<svg width="40" height="40" fill="none" xmlns="http://www.w3.org/2000/svg"><g clip-path="url(#clip0_774_656)" fill="#F65E01"><path d="M29.57.047c-1.312.203-2.203.484-3.265 1.031-2.477 1.266-4.266 3.625-4.867 6.422-.204.922-.204 2.828 0 3.75.601 2.79 2.39 5.148 4.875 6.438.695.351 2 .828 2.289.828.14 0 .148.07.148 1.367v1.367H27.5v17.5H25v-20h-6.25v20h-2.5v-15H10v15H7.5V30H1.25v8.75H0V40h40v-1.25h-6.25v-17.5H32.5v-1.367c0-1.336 0-1.367.164-1.367.297 0 1.563-.461 2.273-.836 2.485-1.282 4.274-3.64 4.876-6.43.18-.828.203-2.75.039-3.555-.743-3.75-3.516-6.633-7.196-7.468-.648-.149-2.554-.258-3.086-.18zm2.399 1.32c3.453.602 6.11 3.274 6.664 6.719.281 1.726.015 3.383-.805 5-.406.812-.742 1.273-1.437 1.976-1.22 1.243-2.649 1.993-4.43 2.32-.36.063-.664.118-.68.118-.015 0-.031.844-.031 1.875v1.875H30v-3.742l-.29-.047c-.163-.031-.64-.133-1.054-.234-2.851-.688-5.148-2.985-5.89-5.883-1.133-4.422 1.656-8.914 6.125-9.899 1.023-.218 2.109-.25 3.078-.078zM23.75 29.375v9.375H20V20h3.75v9.375zm8.75 1.25v8.125h-3.75V22.5h3.75v8.125zM15 31.875v6.875h-3.75V25H15v6.875zM6.25 35v3.75H2.5v-7.5h3.75V35z"/><path d="M29.219 2.656a6.797 6.797 0 00-3.446 1.868 6.842 6.842 0 00-.03 9.664 6.817 6.817 0 009.648.101c1.289-1.25 1.976-2.765 2.086-4.562.25-4.461-3.883-8.008-8.258-7.07zm3.062 1.352c.922.297 1.586.703 2.297 1.414.703.703 1.117 1.367 1.422 2.297.172.523.203.734.195 1.656 0 .93-.023 1.125-.203 1.68-.297.898-.71 1.555-1.422 2.265-.718.72-1.383 1.133-2.258 1.407-2.921.93-6.07-.711-7.054-3.672-.18-.555-.203-.75-.203-1.68-.008-.922.023-1.133.195-1.656.32-.953.719-1.594 1.461-2.328.86-.852 1.71-1.313 2.906-1.563.617-.133 1.992-.039 2.664.18z"/><path d="M29.219 6.445l-1.367 1.367.453.446.445.453.625-.625L30 7.46v5.664h1.25V7.461l.625.625.625.625.445-.453.453-.445-1.367-1.368c-.75-.75-1.383-1.367-1.406-1.367-.023 0-.656.617-1.406 1.367zm-12.969 7.93V15h1.602l-2.5 2.5-2.5 2.5H8.508L4.39 23.797C2.125 25.883.266 27.617.258 27.64c-.008.03.164.257.39.5l.407.453 3.968-3.672L9 21.25h4.398l2.672-2.672 2.68-2.68V17.5H20v-3.75h-3.75v.625zm20 7.5v.625H40v-1.25h-3.75v.625zm0 2.5V25H40v-1.25h-3.75v.625zm0 2.5v.625H40v-1.25h-3.75v.625zm0 2.5V30H40v-1.25h-3.75v.625zm0 2.5v.625H40v-1.25h-3.75v.625zm0 2.5V35H40v-1.25h-3.75v.625zm0 2.5v.625H40v-1.25h-3.75v.625z"/></g><defs><clipPath id="clip0_774_656"><path fill="#fff" d="M0 0h40v40H0z"/></clipPath></defs></svg>