<svg width="40" height="40" fill="none" xmlns="http://www.w3.org/2000/svg"><path d="M4.414 4.445c-.703.172-1.344.703-1.68 1.375l-.195.39v22.58l.266.491c.297.547.539.782 1.132 1.094l.399.21 2.71.024 2.72.024.195-.195a.608.608 0 00.047-.836l-.149-.188-2.656-.039c-2.531-.04-2.672-.047-2.875-.203a2.132 2.132 0 01-.375-.375c-.164-.211-.164-.266-.187-9.188l-.016-8.976 4.586-.024 4.594-.023.39-.18a4.04 4.04 0 00.758-.492c.695-.578-.125-.539 10.406-.539 9.188 0 9.493-.008 9.664-.148.258-.211.258-.743 0-.954-.18-.148-.43-.148-9.882-.132l-9.696.023-.39.18c-.211.101-.555.32-.758.492-.672.562-.43.539-5.297.539H3.742l.024-1.477c.023-1.617.046-1.687.562-2.07l.211-.164H35.46l.212.164c.117.086.289.258.375.375.164.211.164.227.164 11.297s0 11.086-.164 11.297a2.133 2.133 0 01-.375.375c-.203.156-.344.164-2.797.203l-2.578.04-.188.218c-.25.289-.234.484.047.765l.235.235 2.632-.024 2.641-.023.398-.211c.594-.313.836-.547 1.133-1.094l.266-.492V6.21l-.266-.491c-.297-.547-.539-.782-1.133-1.094l-.398-.21-15.508-.017c-8.531 0-15.61.016-15.742.047z" fill="#F65E01"/><path d="M5.516 7.055c-.243.242-.266.586-.055.843.11.141.227.188.477.188.796 0 .859-1.055.062-1.18-.234-.039-.32-.015-.484.149zm2.5 0c-.243.242-.266.586-.055.843.11.141.227.188.477.188.796 0 .859-1.055.062-1.18-.234-.039-.32-.015-.484.149zm2.5 0c-.242.242-.266.586-.055.843.11.141.226.188.476.188.797 0 .86-1.055.063-1.18-.234-.039-.32-.015-.484.149zm14.203 7.5c-.274.234-.29.617-.04.86.141.14.282.179.868.21l.703.04-3.828 3.827-3.828 3.828-.914-.914c-1-.984-1.172-1.11-1.453-1.039-.102.031-.829.695-1.61 1.477-1.226 1.234-1.414 1.453-1.414 1.664 0 .18.07.297.242.445.438.367.586.281 1.907-1.039l1.007-1.023.953.937c1.368 1.36.993 1.5 3.993-1.5 2.054-2.047 2.453-2.422 2.554-2.336.196.164.743 1.344.914 2 .25.906.25 2.555.016 3.438a7.078 7.078 0 01-.89 2.03c-.25.407-.313.556-.266.727.031.141.93 1.094 2.586 2.75 2.289 2.297 2.531 2.57 2.531 2.797a.654.654 0 01-.64.641c-.227 0-.508-.25-2.837-2.578-1.843-1.844-2.632-2.578-2.757-2.578-.102 0-.485.187-.868.414-1.625.984-3.492 1.234-5.289.719-3.125-.899-5.109-3.485-5.109-6.665 0-3.132 2.414-6.046 5.563-6.687 1.187-.242 2.734-.094 3.882.375.282.11.594.203.711.203.453 0 .711-.648.414-1-.172-.203-.906-.5-1.804-.734-.953-.25-2.875-.25-3.79 0-3.015.82-5.148 2.922-6.007 5.93-.149.523-.18.796-.18 1.898 0 1.094.024 1.383.172 1.922.68 2.484 2.289 4.445 4.516 5.508 1.257.601 1.875.734 3.359.734 1.586-.008 2.125-.133 3.734-.875l.61-.29 2.398 2.384c2.531 2.515 2.602 2.57 3.297 2.57.984 0 1.875-.89 1.875-1.883 0-.703-.102-.828-2.594-3.328l-2.36-2.36.36-.765c.203-.422.414-.945.477-1.156.672-2.219.351-4.758-.844-6.64l-.344-.548 1.188-1.195 1.187-1.188.04.672c.038.618.062.688.257.86.266.226.516.234.79.023l.202-.156v-3.266l-.203-.156c-.195-.156-.312-.164-1.718-.164-1.47 0-1.516.008-1.72.18z" fill="#F65E01"/></svg>