<svg width="17" height="17" fill="none" xmlns="http://www.w3.org/2000/svg"><g clip-path="url(#clip0_904_1862)"><path d="M14.451 2.471A8.345 8.345 0 008.494 0C3.854 0 .072 3.78.068 8.421c0 1.487.389 2.933 1.123 4.213L0 17l4.467-1.17a8.428 8.428 0 004.027 1.024h.004c4.64 0 8.421-3.78 8.426-8.425A8.392 8.392 0 0014.45 2.47M8.494 15.43a6.985 6.985 0 01-3.566-.978l-.255-.153-2.65.695.708-2.585-.166-.267a6.97 6.97 0 01-1.07-3.724c0-3.853 3.142-6.995 7.003-6.995a6.97 6.97 0 014.951 2.051 6.966 6.966 0 012.049 4.952c-.005 3.866-3.146 7.004-7.004 7.004zm3.84-5.243c-.209-.105-1.243-.614-1.437-.686-.193-.07-.335-.105-.473.105-.141.21-.545.686-.666.823-.121.142-.246.158-.457.054-.21-.107-.888-.328-1.691-1.047-.627-.558-1.047-1.248-1.172-1.458-.121-.21-.012-.323.093-.428.093-.093.21-.246.315-.368.106-.12.141-.21.21-.35.07-.143.036-.264-.016-.369-.053-.105-.473-1.143-.65-1.562-.17-.413-.343-.356-.473-.361-.121-.007-.262-.007-.404-.007a.775.775 0 00-.562.262c-.193.21-.734.72-.734 1.757 0 1.038.754 2.036.86 2.177.105.142 1.482 2.266 3.595 3.18.5.217.893.346 1.2.444.504.161.96.137 1.324.085.403-.062 1.244-.51 1.421-1.002.174-.493.174-.914.121-1.002-.052-.09-.193-.142-.403-.247z" fill="#fff"/></g><defs><clipPath id="clip0_904_1862"><path fill="#fff" d="M0 0h17v17H0z"/></clipPath></defs></svg>