<svg width="70" height="70" fill="none" xmlns="http://www.w3.org/2000/svg"><path d="M62.128 11.667c1.199 0 2.039.913 2.039 1.934 0 .723-.423 1.502-1.45 2.047-5.215 2.765-11.252 12.326-11.252 18.224 8.796-.269 12.617 7.53 12.617 12.419 0 5.854-5.069 12.043-12.565 12.043-9.45 0-14.087-7.43-14.087-15.48 0-17.44 19.932-31.187 24.698-31.187zm-31.596 0c1.195 0 2.039.913 2.039 1.934 0 .723-.423 1.502-1.45 2.047-5.215 2.765-11.253 12.326-11.253 18.224 8.797-.269 12.618 7.53 12.618 12.419 0 5.854-5.072 12.043-12.565 12.043-9.453 0-14.088-7.43-14.088-15.48 0-17.44 19.93-31.187 24.699-31.187z" fill="#F65E01"/></svg>