<svg width="40" height="40" fill="none" xmlns="http://www.w3.org/2000/svg"><g clip-path="url(#clip0_774_676)" fill="#F65E01"><path d="M19.719.078c-.18.07-1.032 1.063-1.688 1.953-2.953 4.024-4.289 8.586-3.96 13.555.054.773.093 1.492.1 1.601 0 .141-.593 1.016-1.991 2.93-2.11 2.89-2.18 2.992-2.18 3.219 0 .078.313.937.703 1.898.727 1.82.906 2.11 1.29 2.11.116 0 .944-.508 2.109-1.297 1.054-.711 1.945-1.274 1.984-1.25.039.023.187.367.328.758.32.86.5 1.086.89 1.086.15 0 .274.015.274.039 0 .023-.21.468-.476.984-.422.852-.461.969-.391 1.18.164.453.102.445 3.289.445 3.188 0 3.125.008 3.29-.445.07-.211.03-.328-.392-1.18-.265-.516-.476-.96-.476-.984 0-.024.117-.04.258-.04.414 0 .554-.171.875-1.015.164-.43.328-.805.36-.828.038-.024.929.539 1.983 1.25 1.165.789 1.993 1.297 2.11 1.297.383 0 .562-.29 1.289-2.11.39-.96.703-1.82.703-1.898 0-.227-.07-.328-2.18-3.219-1.398-1.914-1.992-2.789-1.992-2.93.008-.109.047-.828.102-1.601.242-3.688-.438-7.18-2.016-10.352-.852-1.703-2.156-3.64-3.227-4.789-.43-.453-.593-.515-.968-.367zm.75 2.188c1.297 1.625 2.61 4.023 3.226 5.906.688 2.11.953 3.844.946 6.203-.008 2.125-.227 3.727-.82 6.117-.243.977-.946 3.195-1.337 4.211l-.234.61h-4.5l-.234-.61c-.961-2.515-1.696-5.351-2.016-7.75-.164-1.226-.188-3.86-.04-5 .376-3 1.446-5.883 3.08-8.305.71-1.054 1.39-1.937 1.476-1.906.023.008.234.242.453.524zM14.797 20.43c.156.64.414 1.57.562 2.062.157.485.25.914.211.945-.172.157-3.242 2.204-3.265 2.18a25.207 25.207 0 01-.453-1.11l-.438-1.077 1.531-2.102c.844-1.164 1.547-2.101 1.555-2.086.008.008.14.54.297 1.188zm12.297.953l1.492 2.047-.438 1.078a25.207 25.207 0 01-.453 1.11c-.023.023-3.093-2.024-3.265-2.18-.04-.032.07-.508.242-1.063.172-.555.422-1.492.562-2.086.141-.594.29-1.047.32-1.016.032.032.72.985 1.54 2.11zm-5.86 5.922l.328.664h-3.125l.329-.664.328-.664h1.812l.328.664z"/><path d="M19.063 8.82c-.586.187-.891.351-1.266.695a3.335 3.335 0 00-1.094 2.477c0 1.21.703 2.398 1.711 2.914 1.898.969 4.086.078 4.75-1.922.281-.875.133-1.969-.39-2.79-.782-1.233-2.352-1.812-3.712-1.374zm1.835 1.398c.68.344 1.063.992 1.063 1.774 0 .781-.375 1.414-1.063 1.781-.242.133-.453.172-.898.172s-.656-.04-.898-.172c-.688-.367-1.063-1-1.063-1.781 0-.922.523-1.633 1.414-1.922.32-.11 1.11-.024 1.445.148z"/><path d="M2.29 9.375a2.034 2.034 0 00-1.462 1.172l-.164.351v27.5l.219.445c.125.25.351.555.508.688C2 40.039.6 40 20 40c19.398 0 18 .039 18.61-.469.156-.133.382-.438.507-.688l.219-.445v-27.5l-.164-.351A2.133 2.133 0 0038.125 9.5c-.344-.164-.469-.164-5.703-.188-3.797-.015-5.438 0-5.649.063-.226.07-.328.148-.414.351-.132.32-.03.672.227.813.125.062 1.71.094 5.578.11l5.398.015.204.187.203.188v3.648H27.023l-.187.203c-.25.266-.25.586-.008.868l.188.218 5.476.024 5.477.015v11.086c0 6.102-.024 11.149-.047 11.22-.14.366.703.35-17.922.35s-17.781.016-17.922-.35c-.023-.071-.047-5.118-.047-11.22V16.015L7.508 16l5.476-.024.188-.218c.242-.282.242-.602-.008-.868l-.187-.203H2.03V11.04l.203-.188.204-.187 5.398-.016c3.867-.015 5.453-.047 5.578-.11.242-.124.352-.476.242-.78-.164-.47-.078-.461-5.82-.454-2.867.008-5.367.04-5.547.07z"/><path d="M3.531 12.21c-.234.25-.226.68.008.891.203.196.399.235.703.157.438-.117.531-.828.149-1.117-.22-.172-.672-.133-.86.07zm2.68.016c-.234.234-.25.57-.04.836.446.578 1.368.031 1.095-.64a.63.63 0 00-1.055-.196zm2.656.001c-.344.335-.203.875.258 1.039.46.164.953-.274.836-.743a.648.648 0 00-1.094-.296zM16.89 30.86c-.226.21-.265.507-.234 1.71.024 1.024.024 1.04.242 1.227.29.242.633.242.875-.008.196-.187.196-.21.196-1.469 0-1.234-.008-1.28-.18-1.445-.234-.219-.672-.227-.898-.016zm5.313.023c-.164.172-.172.258-.172 1.453 0 1.242.008 1.266.196 1.453.242.25.585.25.875.008.218-.188.218-.203.242-1.227.031-1.203-.008-1.5-.235-1.71-.242-.22-.687-.212-.906.023zm-2.68 1.351c-.18.196-.187.235-.187 1.453v1.25l.219.188c.28.242.61.242.89 0l.22-.188v-1.25c0-1.218-.009-1.257-.188-1.453a.644.644 0 00-.954 0z"/></g><defs><clipPath id="clip0_774_676"><path fill="#fff" d="M0 0h40v40H0z"/></clipPath></defs></svg>