<svg width="24" height="24" fill="none" xmlns="http://www.w3.org/2000/svg"><path fill-rule="evenodd" clip-rule="evenodd" d="M24 12c0 6.627-5.373 12-12 12S0 18.627 0 12 5.373 0 12 0s12 5.373 12 12zM8.036 10.9c-1.202.526-2.437 1.065-3.567 1.687-.59.432.194.737.93 1.024.116.045.232.09.34.135l.277.087c.817.26 1.73.551 2.523.114 1.305-.749 2.536-1.615 3.766-2.48a148.521 148.521 0 011.274-.888c.346-.224 1.122-.728.835-.034-.68.743-1.407 1.4-2.138 2.062-.493.445-.988.892-1.471 1.368-.42.342-.858 1.03-.386 1.508 1.084.76 2.186 1.5 3.288 2.241l1.074.724c.606.484 1.553.092 1.687-.664l.178-1.043c.329-1.923.657-3.846.948-5.774.04-.303.084-.605.129-.908.109-.733.217-1.468.251-2.205-.087-.736-.98-.575-1.476-.41-2.553.972-5.08 2.016-7.597 3.077-.285.127-.574.253-.865.38z" fill="#fff"/></svg>