<svg width="19" height="19" fill="none" xmlns="http://www.w3.org/2000/svg"><g clip-path="url(#clip0_904_1849)"><path d="M9.5 0C6.922 0 6.598.012 5.585.057 4.572.104 3.882.264 3.277.499a4.651 4.651 0 00-1.682 1.096A4.663 4.663 0 00.499 3.277C.264 3.881.103 4.572.057 5.582.012 6.597 0 6.92 0 9.501c0 2.58.012 2.902.057 3.915.047 1.012.207 1.702.442 2.306a4.666 4.666 0 001.096 1.683 4.636 4.636 0 001.681 1.096c.606.235 1.295.396 2.306.442C6.597 18.988 6.92 19 9.5 19s2.902-.012 3.916-.057c1.01-.048 1.703-.207 2.308-.442a4.649 4.649 0 001.681-1.096 4.665 4.665 0 001.096-1.683c.234-.604.394-1.294.442-2.306.045-1.013.057-1.336.057-3.916s-.012-2.903-.057-3.918c-.048-1.01-.208-1.701-.442-2.304a4.662 4.662 0 00-1.096-1.683A4.645 4.645 0 0015.722.499c-.605-.235-1.296-.396-2.307-.442C12.401.012 12.08 0 9.498 0H9.5m-.85 1.712h.85c2.537 0 2.837.009 3.838.055.926.042 1.43.197 1.765.327.443.172.76.378 1.092.71.333.333.538.65.71 1.093.131.334.285.838.327 1.764.046 1 .056 1.301.056 3.837 0 2.535-.01 2.837-.056 3.838-.042.926-.197 1.428-.327 1.763a2.933 2.933 0 01-.71 1.091 2.935 2.935 0 01-1.093.71c-.333.131-.836.286-1.764.328-1 .045-1.301.056-3.838.056-2.536 0-2.838-.01-3.839-.056-.926-.043-1.429-.197-1.763-.328a2.944 2.944 0 01-1.093-.71 2.946 2.946 0 01-.712-1.092c-.13-.334-.285-.837-.327-1.764-.045-1-.055-1.301-.055-3.839 0-2.536.01-2.835.055-3.837.043-.926.197-1.43.328-1.764.172-.443.379-.76.711-1.093a2.935 2.935 0 011.093-.71c.334-.13.837-.285 1.763-.328.876-.04 1.216-.052 2.987-.053v.002zm5.923 1.577a1.14 1.14 0 100 2.281 1.14 1.14 0 000-2.28zm-5.07 1.333a4.88 4.88 0 10-.153 9.757 4.88 4.88 0 00.15-9.757zm0 1.71A3.169 3.169 0 0112.667 9.5 3.169 3.169 0 019.5 12.667 3.169 3.169 0 016.334 9.5a3.169 3.169 0 013.167-3.167z" fill="#fff"/></g><defs><clipPath id="clip0_904_1849"><path fill="#fff" d="M0 0h19v19H0z"/></clipPath></defs></svg>