<svg width="150" height="47" fill="none" xmlns="http://www.w3.org/2000/svg"><path d="M141.35 24.643c-3.12 3.182.107 8.503 4.196 6.912 1.936-.768 3.281-3.017 2.851-4.718-.861-3.51-4.626-4.717-7.047-2.194z" fill="#F65E01"/><path d="M69.46 11.621l.094 11.65.907 1.839c.907 1.897 2.752 3.794 4.503 4.654.781.386 4.127 1.067 5.315 1.067.282 0 .375-.74.375-2.757v-2.786l-1.188-.326c-1.407-.415-2.657-1.601-3.158-2.995-.187-.563-.344-2.52-.344-4.357v-3.32l2.345.147 2.345.178V8.597h-1.75c-2.94 0-2.94 0-2.94-4.595V0h-6.597l.093 11.621zM32.72 8.597c-3.157.771-6.16 3.083-7.504 5.87-.563 1.186-.688 1.927-.688 4.95 0 3.291.063 3.677.845 5.218 2.188 4.21 6.44 6.315 12.6 6.256 2.971-.03 6.567-.83 7.505-1.72.344-.356.469-1.126.469-3.113 0-1.452-.063-2.638-.125-2.638-.063 0-.72.326-1.5.741-3.096 1.63-8.13 2.075-10.538.92-1.126-.564-2.189-1.572-2.533-2.402-.219-.593-.063-.593 7.473-.741l7.692-.148v-2.817c-.031-4.891-1.876-7.945-5.847-9.635-2.158-.919-5.66-1.245-7.848-.74zm5.316 5.603c.938.415 1.501.92 1.97 1.779l.626 1.215h-9.725l.188-.681c.781-2.431 4.096-3.528 6.941-2.313zm17.917-5.455c-2.033.623-4.628 2.431-5.847 4.091-1.376 1.928-1.97 3.973-1.97 6.73 0 2.668.563 4.654 1.845 6.581 2.876 4.299 10.412 6.137 15.54 3.765l1.376-.622v-6.167l-1.376.95c-1.188.77-1.751.948-3.752 1.066-2.877.178-4.784-.563-6.035-2.342-2.72-3.913.344-8.864 5.534-8.864 1.22 0 4.003 1.127 4.66 1.868.812.978 1 .474.906-2.668l-.094-3.202-1.876-.711c-2.345-.92-6.754-1.127-8.911-.475zm56.282-.177c-2.376.711-4.565 2.579-5.691 4.92-.656 1.394-.719 1.928-.813 9.25l-.125 7.797h7.223V23.36c.031-7.767.125-8.182 1.782-8.894 1.032-.445 2.345 0 2.846.949.281.533.406 2.757.406 7.915v7.204h6.879V23.42c0-5.81.094-7.293.469-8.004.594-1.068 1.845-1.453 2.939-.86 1.47.8 1.595 1.393 1.595 8.923v7.056h7.192v-7.352c0-8.242-.219-9.487-1.97-11.65-2.72-3.38-8.411-4.27-12.132-1.898l-1.564 1.037-.844-.74c-.438-.416-1.438-.92-2.22-1.187-1.469-.474-4.627-.563-5.972-.177zm-29.329 7.648c.187 8.894.344 9.635 2.783 11.947 2 1.898 4.22 2.698 7.504 2.698 1.313 0 2.97-.119 3.627-.296 1.72-.445 3.94-1.898 4.909-3.261 1.563-2.135 1.751-3.32 1.751-11.355V8.597h-6.848l-.093 7.234c-.094 6.789-.126 7.293-.75 8.063-.783 1.008-1.97 1.334-3.378.979-2.189-.564-2.22-.682-2.314-8.894l-.093-7.382H82.78l.125 7.62zm40.984 22.3c-.811.152-1.491.71-1.846 1.496-.193.43-.217.574-.217 1.368 0 .803.024.93.217 1.37.471 1.047 1.259 1.504 2.688 1.571l.904.034-.07.254c-.085.346-.208.49-.572.667-.594.296-1.56.17-2.456-.33-.031-.016-.046.364-.039.846l.024.87.424.169c.333.127.634.16 1.391.169.942 0 .981-.008 1.483-.279.61-.33 1.004-.786 1.197-1.403.116-.371.139-.735.139-2.543 0-2.442-.046-2.713-.618-3.406-.602-.735-1.606-1.056-2.649-.853zm1.143 1.724c.379.211.556.718.603 1.664l.038.829h-.579c-.896 0-1.352-.237-1.576-.82-.147-.372-.131-.676.046-1.099.255-.625.927-.879 1.468-.574zm-7.966-.91c-.861.244-1.497.731-1.867 1.44-.201.387-.225.501-.225 1.217 0 .745.016.817.265 1.268.483.867 1.296 1.332 2.462 1.397.966.057 1.014.021 1.014-.73v-.61h-.442c-.732 0-1.215-.236-1.497-.73-.539-.946.443-2.177 1.529-1.92.378.087.772.459.885.838.048.15.089.896.089 1.648v1.382h1.786l-.056-1.597c-.033-.924-.105-1.719-.161-1.89-.258-.767-.918-1.376-1.771-1.662-.515-.172-1.488-.2-2.011-.05zm12.633 0c-.752.259-1.33.783-1.611 1.464-.228.56-.228 1.658.007 2.232.418 1.034 1.528 1.644 2.972 1.644.646-.007 1.079-.086 1.611-.302l.365-.143v-1.342l-.487.215c-.858.38-1.899.416-2.5.08-.228-.123-.585-.54-.585-.668 0-.036.836-.065 1.854-.065h1.862l.046-.38c.061-.474-.069-1.199-.304-1.63-.418-.775-1.133-1.162-2.204-1.198-.494-.014-.783.007-1.026.093zm1.535 1.292c.228.115.517.46.517.632 0 .1-.144.114-1.14.114-.623 0-1.14-.021-1.14-.043 0-.021.053-.15.122-.28.266-.53 1.026-.724 1.641-.423zm4.176-1.254c-.683.246-1.18.82-1.325 1.537-.041.203-.076 1.132-.076 2.06v1.705h1.518v-1.69c0-1.937.035-2.104.504-2.292.235-.095.29-.087.497.014.462.232.483.32.504 2.242l.021 1.726h1.525l-.028-1.872-.028-1.878-.227-.486c-.249-.537-.635-.9-1.173-1.095-.415-.153-1.263-.138-1.712.029zm6.108-.075c-1.497.347-2.37 1.646-2.144 3.19.133.895.694 1.61 1.567 1.978.436.187.561.209 1.34.209.717 0 .92-.029 1.224-.159l.366-.152.024-.692c.015-.383.015-.693.007-.693 0 0-.194.08-.428.18-.795.347-1.754.195-2.206-.353-.514-.628-.249-1.667.53-2.043.398-.187 1.115-.151 1.598.072l.413.195-.023-.707-.024-.7-.389-.18c-.429-.195-1.31-.267-1.855-.145zm3.183 1.699c.041 2 .129 2.38.677 2.922.547.543 1.143.744 2.326.767.516.016.564.031.54.17-.048.288-.419.574-.862.667-.515.109-1.32-.007-1.948-.279l-.427-.186v1.605l.266.085c.99.31 2.214.341 3.067.085.451-.14.636-.248.975-.566.676-.658.684-.682.684-4.1v-2.93h-1.771v4.032h-.419c-.499 0-.91-.178-1.143-.488-.153-.202-.169-.349-.193-1.883l-.025-1.66h-1.779l.032 1.76zM0 11.24v3.108l.945.193c.506.096 1.114.224 1.35.32.236.064 1.316 1.954 2.463 4.197 1.114 2.275 3.038 5.8 4.253 7.85 2.26 3.781 2.26 3.781 3.51 3.781 1.248 0 1.315-.064 3.678-3.62 4.488-6.665 7.02-12.272 7.93-17.463l.236-1.345h-7.728l-.236 1.954c-.371 3.108-2.733 9.58-3.51 9.58-.168 0-1.147-1.698-2.227-3.748-1.08-2.083-2.396-4.294-2.936-4.935C6.48 9.606 4.455 8.677 1.958 8.39L0 8.164v3.076z" fill="#000"/></svg>