<svg width="20" height="20" viewBox="0 0 20 20" fill="none" xmlns="http://www.w3.org/2000/svg">
<path d="M10.0013 2.29163C6.9263 2.29163 4.41797 4.79996 4.41797 7.87496C4.41797 11.6916 9.41797 17.3083 9.6263 17.5416C9.8263 17.7666 10.1763 17.7666 10.3763 17.5416C10.593 17.3083 15.5846 11.6916 15.5846 7.87496C15.5846 4.79996 13.0763 2.29163 10.0013 2.29163Z" stroke="black" stroke-width="1.5" stroke-linecap="round" stroke-linejoin="round"/>
<path d="M10.3214 9.82102C11.3987 9.64956 12.1329 8.63727 11.9615 7.56004C11.79 6.4828 10.7777 5.74853 9.70051 5.92C8.62327 6.09147 7.889 7.10374 8.06047 8.18097C8.23194 9.25821 9.24421 9.99249 10.3214 9.82102Z" stroke="black" stroke-width="1.5" stroke-linecap="round" stroke-linejoin="round"/>
</svg>
