<svg width="15" height="15" viewBox="0 0 15 15" fill="none" xmlns="http://www.w3.org/2000/svg">
<path fill-rule="evenodd" clip-rule="evenodd" d="M5.75005 2.58123C5.72004 2.60925 5.69584 2.64291 5.67884 2.68029C5.66184 2.71766 5.65237 2.75802 5.65098 2.79906C5.64959 2.8401 5.6563 2.881 5.67072 2.91945C5.68515 2.95789 5.70701 2.99311 5.73505 3.0231L9.91005 7.4981L5.73505 11.9731C5.67844 12.0337 5.64822 12.1143 5.65104 12.1971C5.65385 12.28 5.68947 12.3584 5.75005 12.415C5.81064 12.4716 5.89123 12.5018 5.9741 12.499C6.05696 12.4962 6.13532 12.4606 6.19193 12.4L10.5669 7.71248C10.6209 7.65462 10.6509 7.57846 10.6509 7.49935C10.6509 7.42025 10.6209 7.34408 10.5669 7.28623L6.19193 2.59873C6.16395 2.56867 6.13032 2.54442 6.09297 2.52737C6.05561 2.51032 6.01526 2.50079 5.97423 2.49934C5.93319 2.49789 5.89227 2.50454 5.8538 2.51891C5.81534 2.53329 5.78008 2.5551 5.75005 2.5831V2.58123Z" fill="#9498AB"/>
</svg>
