<svg width="40" height="40" viewBox="0 0 40 40" fill="none" xmlns="http://www.w3.org/2000/svg">
<g clip-path="url(#clip0_774_676)">
<path d="M19.7188 0.0781155C19.5391 0.148428 18.6875 1.14062 18.0312 2.03124C15.0781 6.05468 13.7422 10.6172 14.0703 15.5859C14.125 16.3594 14.1641 17.0781 14.1719 17.1875C14.1719 17.3281 13.5781 18.2031 12.1797 20.1172C10.0703 23.0078 10 23.1094 10 23.3359C10 23.4141 10.3125 24.2734 10.7031 25.2344C11.4297 27.0547 11.6094 27.3437 11.9922 27.3437C12.1094 27.3437 12.9375 26.8359 14.1016 26.0469C15.1562 25.3359 16.0469 24.7734 16.0859 24.7969C16.125 24.8203 16.2734 25.1641 16.4141 25.5547C16.7344 26.4141 16.9141 26.6406 17.3047 26.6406C17.4531 26.6406 17.5781 26.6562 17.5781 26.6797C17.5781 26.7031 17.3672 27.1484 17.1016 27.6641C16.6797 28.5156 16.6406 28.6328 16.7109 28.8437C16.875 29.2969 16.8125 29.2891 20 29.2891C23.1875 29.2891 23.125 29.2969 23.2891 28.8437C23.3594 28.6328 23.3203 28.5156 22.8984 27.6641C22.6328 27.1484 22.4219 26.7031 22.4219 26.6797C22.4219 26.6562 22.5391 26.6406 22.6797 26.6406C23.0938 26.6406 23.2344 26.4687 23.5547 25.625C23.7188 25.1953 23.8828 24.8203 23.9141 24.7969C23.9531 24.7734 24.8438 25.3359 25.8984 26.0469C27.0625 26.8359 27.8906 27.3437 28.0078 27.3437C28.3906 27.3437 28.5703 27.0547 29.2969 25.2344C29.6875 24.2734 30 23.4141 30 23.3359C30 23.1094 29.9297 23.0078 27.8203 20.1172C26.4219 18.2031 25.8281 17.3281 25.8281 17.1875C25.8359 17.0781 25.875 16.3594 25.9297 15.5859C26.1719 11.8984 25.4922 8.40624 23.9141 5.23437C23.0625 3.53124 21.7578 1.59374 20.6875 0.445303C20.2578 -0.00782204 20.0938 -0.070322 19.7188 0.0781155ZM20.4688 2.26562C21.7656 3.89062 23.0781 6.28905 23.6953 8.17187C24.3828 10.2812 24.6484 12.0156 24.6406 14.375C24.6328 16.5 24.4141 18.1016 23.8203 20.4922C23.5781 21.4687 22.875 23.6875 22.4844 24.7031L22.25 25.3125H20H17.75L17.5156 24.7031C16.5547 22.1875 15.8203 19.3516 15.5 16.9531C15.3359 15.7266 15.3125 13.0937 15.4609 11.9531C15.8359 8.95312 16.9062 6.0703 18.5391 3.64843C19.25 2.59374 19.9297 1.71093 20.0156 1.74218C20.0391 1.74999 20.25 1.98437 20.4688 2.26562ZM14.7969 20.4297C14.9531 21.0703 15.2109 22 15.3594 22.4922C15.5156 22.9766 15.6094 23.4062 15.5703 23.4375C15.3984 23.5937 12.3281 25.6406 12.3047 25.6172C12.2891 25.6016 12.0859 25.1016 11.8516 24.5078L11.4141 23.4297L12.9453 21.3281C13.7891 20.1641 14.4922 19.2266 14.5 19.2422C14.5078 19.25 14.6406 19.7812 14.7969 20.4297ZM27.0938 21.3828L28.5859 23.4297L28.1484 24.5078C27.9141 25.1016 27.7109 25.6016 27.6953 25.6172C27.6719 25.6406 24.6016 23.5937 24.4297 23.4375C24.3906 23.4062 24.5 22.9297 24.6719 22.375C24.8438 21.8203 25.0938 20.8828 25.2344 20.2891C25.375 19.6953 25.5234 19.2422 25.5547 19.2734C25.5859 19.3047 26.2734 20.2578 27.0938 21.3828ZM21.2344 27.3047L21.5625 27.9687H20H18.4375L18.7656 27.3047L19.0938 26.6406H20H20.9062L21.2344 27.3047Z" fill="#F65E01"/>
<path d="M19.0625 8.81992C18.4766 9.00742 18.1719 9.17148 17.7969 9.51523C17.1016 10.1402 16.7031 11.0465 16.7031 11.9918C16.7031 13.2027 17.4062 14.3902 18.4141 14.9059C20.3125 15.8746 22.5 14.984 23.1641 12.984C23.4453 12.109 23.2969 11.0152 22.7734 10.1949C21.9922 8.96054 20.4219 8.38242 19.0625 8.81992ZM20.8984 10.2184C21.5781 10.5621 21.9609 11.2105 21.9609 11.9918C21.9609 12.773 21.5859 13.4059 20.8984 13.773C20.6562 13.9059 20.4453 13.9449 20 13.9449C19.5547 13.9449 19.3438 13.9059 19.1016 13.773C18.4141 13.4059 18.0391 12.773 18.0391 11.9918C18.0391 11.0699 18.5625 10.359 19.4531 10.0699C19.7734 9.96054 20.5625 10.0465 20.8984 10.2184Z" fill="#F65E01"/>
<path d="M2.28906 9.37479C1.64062 9.5076 1.11719 9.92167 0.828125 10.5467L0.664062 10.8982V24.6482V38.3982L0.882812 38.8435C1.00781 39.0935 1.23438 39.3982 1.39062 39.531C2 40.0389 0.601562 39.9998 20 39.9998C39.3984 39.9998 38 40.0389 38.6094 39.531C38.7656 39.3982 38.9922 39.0935 39.1172 38.8435L39.3359 38.3982V24.6482V10.8982L39.1719 10.5467C38.9688 10.0935 38.5781 9.70292 38.125 9.49979C37.7812 9.33573 37.6562 9.33573 32.4219 9.31229C28.625 9.29667 26.9844 9.31229 26.7734 9.37479C26.5469 9.4451 26.4453 9.52323 26.3594 9.72635C26.2266 10.0467 26.3281 10.3982 26.5859 10.5389C26.7109 10.6014 28.2969 10.6326 32.1641 10.6482L37.5625 10.6639L37.7656 10.8514L37.9688 11.0389V12.867V14.6873H32.5H27.0234L26.8359 14.8904C26.5859 15.156 26.5859 15.4764 26.8281 15.7576L27.0156 15.9764L32.4922 15.9998L37.9688 16.0154V27.1014C37.9688 33.2029 37.9453 38.2498 37.9219 38.3201C37.7812 38.6873 38.625 38.6717 20 38.6717C1.375 38.6717 2.21875 38.6873 2.07812 38.3201C2.05469 38.2498 2.03125 33.2029 2.03125 27.1014V16.0154L7.50781 15.9998L12.9844 15.9764L13.1719 15.7576C13.4141 15.4764 13.4141 15.156 13.1641 14.8904L12.9766 14.6873H7.5H2.03125V12.867V11.0389L2.23438 10.8514L2.4375 10.6639L7.83594 10.6482C11.7031 10.6326 13.2891 10.6014 13.4141 10.5389C13.6562 10.4139 13.7656 10.0623 13.6562 9.7576C13.4922 9.28885 13.5781 9.29667 7.83594 9.30448C4.96875 9.31229 2.46875 9.34354 2.28906 9.37479Z" fill="#F65E01"/>
<path d="M3.5313 12.2108C3.29692 12.4608 3.30474 12.8905 3.53911 13.1014C3.74224 13.2967 3.93755 13.3358 4.24224 13.2577C4.67974 13.1405 4.77349 12.4296 4.39067 12.1405C4.17192 11.9686 3.7188 12.0077 3.5313 12.2108Z" fill="#F65E01"/>
<path d="M6.21096 12.2261C5.97658 12.4605 5.96096 12.7964 6.17189 13.0621C6.61721 13.6402 7.53908 13.0933 7.26564 12.4214C7.08596 11.9839 6.54689 11.8824 6.21096 12.2261Z" fill="#F65E01"/>
<path d="M8.86719 12.2266C8.52344 12.5625 8.66407 13.1016 9.12501 13.2656C9.58594 13.4297 10.0781 12.9922 9.96094 12.5234C9.83594 12.0312 9.22657 11.8594 8.86719 12.2266Z" fill="#F65E01"/>
<path d="M16.8906 30.8594C16.6641 31.0703 16.625 31.3672 16.6562 32.5703C16.6797 33.5937 16.6797 33.6094 16.8984 33.7969C17.1875 34.0391 17.5312 34.0391 17.7734 33.7891C17.9687 33.6016 17.9687 33.5781 17.9687 32.3203C17.9687 31.0859 17.9609 31.0391 17.7891 30.875C17.5547 30.6562 17.1172 30.6484 16.8906 30.8594Z" fill="#F65E01"/>
<path d="M22.2031 30.8828C22.0391 31.0547 22.0312 31.1406 22.0312 32.3359C22.0312 33.5781 22.0391 33.6016 22.2266 33.7891C22.4688 34.0391 22.8125 34.0391 23.1016 33.7969C23.3203 33.6094 23.3203 33.5937 23.3438 32.5703C23.375 31.3672 23.3359 31.0703 23.1094 30.8594C22.8672 30.6406 22.4219 30.6484 22.2031 30.8828Z" fill="#F65E01"/>
<path d="M19.5234 32.2344C19.3438 32.4297 19.3359 32.4688 19.3359 33.6875V34.9375L19.5547 35.125C19.8359 35.3672 20.1641 35.3672 20.4453 35.125L20.6641 34.9375V33.6875C20.6641 32.4688 20.6562 32.4297 20.4766 32.2344C20.2109 31.9531 19.7891 31.9531 19.5234 32.2344Z" fill="#F65E01"/>
</g>
<defs>
<clipPath id="clip0_774_676">
<rect width="40" height="40" fill="white"/>
</clipPath>
</defs>
</svg>
