<svg width="40" height="40" viewBox="0 0 40 40" fill="none" xmlns="http://www.w3.org/2000/svg">
<g clip-path="url(#clip0_774_656)">
<path d="M29.5703 0.046875C28.2578 0.25 27.3672 0.53125 26.3047 1.07812C23.8281 2.34375 22.0391 4.70312 21.4375 7.5C21.2344 8.42188 21.2344 10.3281 21.4375 11.25C22.0391 14.0391 23.8281 16.3984 26.3125 17.6875C27.0078 18.0391 28.3125 18.5156 28.6016 18.5156C28.7422 18.5156 28.75 18.5859 28.75 19.8828V21.25H28.125H27.5V30V38.75H26.25H25V28.75V18.75H21.875H18.75V28.75V38.75H17.5H16.25V31.25V23.75H13.125H10V31.25V38.75H8.75H7.5V34.375V30H4.375H1.25V34.375V38.75H0.625H0V39.375V40H20H40V39.375V38.75H36.875H33.75V30V21.25H33.125H32.5V19.8828C32.5 18.5469 32.5 18.5156 32.6641 18.5156C32.9609 18.5156 34.2266 18.0547 34.9375 17.6797C37.4219 16.3984 39.2109 14.0391 39.8125 11.25C39.9922 10.4219 40.0156 8.5 39.8516 7.69531C39.1094 3.94531 36.3359 1.0625 32.6562 0.226562C32.0078 0.078125 30.1016 -0.03125 29.5703 0.046875ZM31.9688 1.36719C35.4219 1.96875 38.0781 4.64062 38.6328 8.08594C38.9141 9.8125 38.6484 11.4688 37.8281 13.0859C37.4219 13.8984 37.0859 14.3594 36.3906 15.0625C35.1719 16.3047 33.7422 17.0547 31.9609 17.3828C31.6016 17.4453 31.2969 17.5 31.2812 17.5C31.2656 17.5 31.25 18.3438 31.25 19.375V21.25H30.625H30V19.375V17.5078L29.7109 17.4609C29.5469 17.4297 29.0703 17.3281 28.6562 17.2266C25.8047 16.5391 23.5078 14.2422 22.7656 11.3438C21.6328 6.92188 24.4219 2.42969 28.8906 1.44531C29.9141 1.22656 31 1.19531 31.9688 1.36719ZM23.75 29.375V38.75H21.875H20V29.375V20H21.875H23.75V29.375ZM32.5 30.625V38.75H30.625H28.75V30.625V22.5H30.625H32.5V30.625ZM15 31.875V38.75H13.125H11.25V31.875V25H13.125H15V31.875ZM6.25 35V38.75H4.375H2.5V35V31.25H4.375H6.25V35Z" fill="#F65E01"/>
<path d="M29.2188 2.65635C27.8907 2.9376 26.7266 3.57041 25.7735 4.52354C23.1016 7.19541 23.086 11.5001 25.7422 14.1876C28.3985 16.8829 32.6954 16.9298 35.3907 14.2892C36.6797 13.0392 37.3672 11.5235 37.4766 9.72666C37.7266 5.26573 33.5938 1.71885 29.2188 2.65635ZM32.2813 4.00791C33.2032 4.30479 33.8672 4.71104 34.5782 5.42198C35.2813 6.1251 35.6954 6.78916 36 7.71885C36.1719 8.24229 36.2032 8.45323 36.1954 9.3751C36.1954 10.3048 36.1719 10.5001 35.9922 11.0548C35.6954 11.9532 35.2813 12.6095 34.5704 13.3204C33.8516 14.0392 33.1875 14.4532 32.3125 14.7267C29.3907 15.6564 26.2422 14.0157 25.2579 11.0548C25.0782 10.5001 25.0547 10.3048 25.0547 9.3751C25.0469 8.45323 25.0782 8.24229 25.25 7.71885C25.5704 6.76573 25.9688 6.1251 26.711 5.39073C27.5704 4.53916 28.4219 4.07823 29.6172 3.82823C30.2344 3.69541 31.6094 3.78916 32.2813 4.00791Z" fill="#F65E01"/>
<path d="M29.2188 6.44531L27.8516 7.8125L28.3047 8.25781L28.75 8.71094L29.375 8.08594L30 7.46094V10.2969V13.125H30.625H31.25V10.2969V7.46094L31.875 8.08594L32.5 8.71094L32.9453 8.25781L33.3984 7.8125L32.0312 6.44531C31.2812 5.69531 30.6484 5.07812 30.625 5.07812C30.6016 5.07812 29.9688 5.69531 29.2188 6.44531Z" fill="#F65E01"/>
<path d="M16.25 14.375V15H17.0469H17.8516L15.3516 17.5L12.8516 20H10.6797H8.50782L4.39064 23.7969C2.12501 25.8828 0.265637 27.6172 0.257824 27.6406C0.250012 27.6719 0.421887 27.8984 0.648449 28.1406L1.0547 28.5938L5.02345 24.9219L9.00001 21.25H11.1953H13.3984L16.0703 18.5781L18.75 15.8984V16.7031V17.5H19.375H20V15.625V13.75H18.125H16.25V14.375Z" fill="#F65E01"/>
<path d="M36.25 21.875V22.5H38.125H40V21.875V21.25H38.125H36.25V21.875Z" fill="#F65E01"/>
<path d="M36.25 24.375V25H38.125H40V24.375V23.75H38.125H36.25V24.375Z" fill="#F65E01"/>
<path d="M36.25 26.875V27.5H38.125H40V26.875V26.25H38.125H36.25V26.875Z" fill="#F65E01"/>
<path d="M36.25 29.375V30H38.125H40V29.375V28.75H38.125H36.25V29.375Z" fill="#F65E01"/>
<path d="M36.25 31.875V32.5H38.125H40V31.875V31.25H38.125H36.25V31.875Z" fill="#F65E01"/>
<path d="M36.25 34.375V35H38.125H40V34.375V33.75H38.125H36.25V34.375Z" fill="#F65E01"/>
<path d="M36.25 36.875V37.5H38.125H40V36.875V36.25H38.125H36.25V36.875Z" fill="#F65E01"/>
</g>
<defs>
<clipPath id="clip0_774_656">
<rect width="40" height="40" fill="white"/>
</clipPath>
</defs>
</svg>
