<svg width="15" height="15" viewBox="0 0 15 15" fill="none" xmlns="http://www.w3.org/2000/svg">
<path d="M6.48449 0.690966C6.78384 -0.230345 8.08725 -0.230344 8.3866 0.690966L9.45617 3.98276C9.59005 4.39479 9.974 4.67375 10.4072 4.67375H13.8684C14.8372 4.67375 15.2399 5.91336 14.4562 6.48276L11.656 8.51721C11.3056 8.77185 11.1589 9.22322 11.2928 9.63524L12.3623 12.927C12.6617 13.8483 11.6072 14.6145 10.8235 14.0451L8.02333 12.0106C7.67284 11.756 7.19825 11.756 6.84776 12.0106L4.04759 14.0451C3.26388 14.6145 2.2094 13.8483 2.50875 12.927L3.57832 9.63524C3.71219 9.22322 3.56554 8.77185 3.21505 8.51721L0.41488 6.48276C-0.368834 5.91336 0.0339417 4.67375 1.00267 4.67375H4.46386C4.89709 4.67375 5.28105 4.39479 5.41492 3.98276L6.48449 0.690966Z" fill="#EDC235"/>
</svg>
