<svg width="15" height="15" viewBox="0 0 15 15" fill="none" xmlns="http://www.w3.org/2000/svg">
<path fill-rule="evenodd" clip-rule="evenodd" d="M5.74956 2.58123C5.71955 2.60925 5.69535 2.64291 5.67835 2.68029C5.66135 2.71766 5.65189 2.75802 5.65049 2.79906C5.6491 2.8401 5.65581 2.881 5.67023 2.91945C5.68466 2.95789 5.70652 2.99311 5.73456 3.0231L9.90956 7.4981L5.73456 11.9731C5.67796 12.0337 5.64773 12.1143 5.65055 12.1971C5.65336 12.28 5.68898 12.3584 5.74956 12.415C5.81015 12.4716 5.89074 12.5018 5.97361 12.499C6.05647 12.4962 6.13483 12.4606 6.19144 12.4L10.5664 7.71248C10.6204 7.65462 10.6504 7.57846 10.6504 7.49935C10.6504 7.42025 10.6204 7.34408 10.5664 7.28623L6.19144 2.59873C6.16346 2.56867 6.12983 2.54442 6.09248 2.52737C6.05512 2.51032 6.01478 2.50079 5.97374 2.49934C5.9327 2.49789 5.89178 2.50454 5.85331 2.51891C5.81485 2.53329 5.77959 2.5551 5.74956 2.5831V2.58123Z" fill="#F6F6F6"/>
</svg>
