<svg width="17" height="20" viewBox="0 0 17 20" fill="none" xmlns="http://www.w3.org/2000/svg">
<g clip-path="url(#clip0_904_1857)">
<path d="M3.80734 16.9925H0.28443L0.28443 5.64773H3.80734M2.04399 4.1002C0.917476 4.1002 0.00375 3.16713 0.00375 2.04062C0.00375 0.914579 0.91795 0.000379297 2.04399 0.000379297C3.17003 0.000379297 4.08423 0.914579 4.08423 2.04062C4.08423 3.16713 3.17012 4.1002 2.04399 4.1002ZM16.9925 16.9925H13.4771V11.4699C13.4771 10.1538 13.4506 8.46591 11.6455 8.46591C9.81388 8.46591 9.53321 9.89586 9.53321 11.3751V16.9925H6.01409V5.64773H9.39287V7.19526H9.44217C9.9125 6.30391 11.0614 5.36326 12.7754 5.36326C16.3408 5.36326 16.9963 7.71111 16.9963 10.7607V16.9925" fill="white"/>
</g>
<defs>
<clipPath id="clip0_904_1857">
<rect width="17" height="19.42" fill="white"/>
</clipPath>
</defs>
</svg>
