<svg width="40" height="40" viewBox="0 0 40 40" fill="none" xmlns="http://www.w3.org/2000/svg">
<path d="M5.50885 0.0860252C4.16424 0.315315 2.89873 0.971554 1.92586 1.94405C-1.00064 4.86945 -0.526071 9.71612 2.91455 12.0169C3.58685 12.4676 4.6309 12.9103 5.25575 13.0131C5.42185 13.0368 5.64331 13.0764 5.74613 13.1001L5.92014 13.1317V16.658C5.92014 20.3582 5.93596 20.5401 6.27607 20.6745C6.34725 20.6982 7.18566 20.7219 8.1427 20.7219H9.87487V20.9354C9.87487 21.1963 10.1201 21.6312 10.3257 21.734C10.4048 21.7735 10.6579 21.8526 10.8873 21.9158C11.2748 22.0107 11.3065 22.0344 11.3856 22.3349C11.4647 22.6353 11.4647 22.659 11.2274 22.8567C10.5076 23.4418 10.4918 23.8371 11.1562 24.9756C11.9313 26.3276 12.1212 26.4541 13.007 26.2249L13.4737 26.1063L13.6872 26.3197L13.9008 26.5332L13.7821 26.9997C13.5528 27.8852 13.6793 28.075 15.0318 28.8498C16.1629 29.506 16.5505 29.4981 17.1437 28.8261C17.381 28.5573 17.4047 28.5494 17.6894 28.6205C17.9663 28.6996 17.9979 28.7391 18.0928 29.1186C18.1561 29.3479 18.2352 29.6009 18.2747 29.68C18.3855 29.8935 18.8205 30.1307 19.1131 30.1307H19.3662V31.4748V32.8189H16.242H13.1257L13.0703 32.5184C12.6669 30.1465 11.1958 28.2647 9.0602 27.3792C7.39921 26.6834 5.23202 26.7467 3.66594 27.5373C1.30102 28.7312 -0.146417 31.2376 0.0117725 33.8467C0.0750482 34.7955 0.296513 35.594 0.739443 36.4558C2.78008 40.3933 8.0557 41.2155 11.1799 38.0846C11.8601 37.4046 12.2794 36.78 12.6195 35.9419C12.8409 35.3885 12.9279 35.088 13.0861 34.2657L13.1178 34.0839H16.6849H20.2442L20.434 33.8862L20.6317 33.6965V31.9096V30.1307H20.8928C21.1775 30.1307 21.6125 29.8935 21.7232 29.68C21.7628 29.6009 21.8419 29.3479 21.8973 29.1265C21.9843 28.747 22.0159 28.7075 22.2769 28.6284C22.5458 28.5573 22.5854 28.5731 22.8464 28.8182C23.582 29.514 23.8193 29.514 24.9661 28.8498C26.3186 28.075 26.4452 27.8852 26.2158 26.9997L26.0972 26.5332L26.3107 26.3197L26.5243 26.1063L26.991 26.2249C27.8768 26.4541 28.0666 26.3276 28.8418 24.9756C29.5062 23.8292 29.4983 23.5129 28.7943 22.8883C28.5333 22.659 28.5254 22.6432 28.6124 22.3349C28.6915 22.0344 28.7231 22.0107 29.1107 21.9158C29.3401 21.8526 29.5932 21.7735 29.6723 21.734C29.8779 21.6312 30.1231 21.1963 30.1231 20.9354V20.7219H31.4677H32.8123V23.8055V26.889L32.5988 26.9285C31.3412 27.1657 30.6135 27.4504 29.7434 28.0275C26.9751 29.8618 26.0576 33.7044 27.687 36.614C28.5808 38.2032 29.957 39.2785 31.7683 39.7924C32.6462 40.0454 34.2518 40.0454 35.1298 39.7924C36.2846 39.4603 37.2574 38.8989 38.0721 38.0767C40.6348 35.515 40.6348 31.3799 38.0721 28.8261C37.7716 28.5177 37.3049 28.1303 37.0439 27.9564C36.4823 27.5848 35.4778 27.1657 34.8688 27.0471C34.6315 26.9997 34.3547 26.9443 34.2598 26.9206L34.0857 26.889L34.062 23.3627L34.0383 19.8364L33.8168 19.6467C33.5954 19.4569 33.5795 19.4569 31.8553 19.4569H30.1231V19.1565C30.1231 18.8402 29.9016 18.4053 29.6723 18.2867C29.5932 18.2472 29.3401 18.1682 29.1107 18.1049C28.7231 18.01 28.6915 17.9863 28.6124 17.6859C28.5333 17.3933 28.5412 17.3696 28.7627 17.1877C29.1028 16.9268 29.3322 16.5236 29.3322 16.1836C29.3322 15.9622 29.2056 15.6618 28.8418 15.0451C28.0666 13.6931 27.8768 13.5666 26.991 13.7959L26.5243 13.9145L26.3107 13.701L26.0972 13.4875L26.2158 13.021C26.4452 12.1355 26.3186 11.9458 24.9661 11.1709C23.9616 10.5858 23.6848 10.5463 23.1865 10.91C23.0046 11.0365 22.8068 11.2184 22.7436 11.3132C22.6407 11.4635 22.5933 11.4714 22.3165 11.4002C22.0238 11.3211 22.0001 11.2895 21.9052 10.9021C21.8419 10.6728 21.7628 10.4198 21.7232 10.3407C21.6125 10.1273 21.1775 9.89007 20.8928 9.89007H20.6317V8.54596V7.20186H23.756H26.8723L26.9277 7.4944C27.3311 9.88216 28.7943 11.756 30.9378 12.6415C32.7253 13.3926 34.9558 13.2582 36.6247 12.3174C39.6777 10.5858 40.8721 6.78282 39.3218 3.69929C38.9342 2.92445 38.6416 2.51332 38.0721 1.94405C37.2574 1.12178 36.2846 0.560417 35.1298 0.228344C34.2518 -0.024662 32.6462 -0.024662 31.7683 0.228344C29.9175 0.75808 28.5412 1.84917 27.6474 3.49372C27.3469 4.04717 26.9593 5.18571 26.9593 5.52569C26.9593 5.64428 26.9277 5.77869 26.896 5.83404C26.8486 5.9052 25.9627 5.93682 23.2498 5.95264L19.6668 5.97636L19.5165 6.16611C19.382 6.33215 19.3662 6.49818 19.3662 8.11901V9.89007H19.1131C18.8205 9.89007 18.3855 10.1273 18.2747 10.3407C18.2352 10.4198 18.1561 10.6728 18.0928 10.9021C17.9979 11.2895 17.9742 11.3211 17.6815 11.4002C17.381 11.4793 17.3651 11.4714 17.1358 11.2025C16.5742 10.5226 16.1629 10.5147 15.0318 11.1709C13.6793 11.9458 13.5528 12.1355 13.7821 13.021L13.9008 13.4875L13.6872 13.701L13.4737 13.9145L13.007 13.7959C12.1212 13.5666 11.9313 13.6931 11.1562 15.0451C10.7924 15.6618 10.6658 15.9622 10.6658 16.1836C10.6658 16.5236 10.8952 16.9268 11.2353 17.1877C11.4568 17.3696 11.4647 17.3933 11.3856 17.6859C11.3065 17.9863 11.2748 18.01 10.8873 18.1049C10.6579 18.1682 10.4048 18.2472 10.3257 18.2867C10.0963 18.4053 9.87487 18.8402 9.87487 19.1565V19.4569H8.53026H7.18566V16.2943V13.1396L7.48622 13.0922C10.3099 12.6099 12.4534 10.57 13.007 7.83438C13.2918 6.41121 13.0149 4.65597 12.3031 3.39094C10.9427 0.987366 8.17434 -0.364643 5.50885 0.0860252ZM8.09524 1.50919C9.44776 1.92824 10.6816 2.97189 11.2907 4.2053C13.2601 8.20598 9.78787 12.6652 5.40603 11.7481C4.48062 11.5504 3.61849 11.076 2.875 10.3328C1.75185 9.21802 1.29311 8.12692 1.29311 6.56934C1.29311 5.77869 1.32474 5.56522 1.52248 4.96432C2.1236 3.13002 3.57103 1.81755 5.48512 1.38269C6.14952 1.23247 7.3913 1.28781 8.09524 1.50919ZM35.0982 1.55663C36.6959 2.08637 37.9456 3.3435 38.4755 4.95642C38.6732 5.56522 38.7049 5.77869 38.7049 6.56934C38.7049 7.29674 38.6653 7.59719 38.5229 8.07158C38.2936 8.79897 37.9139 9.49474 37.471 10.0008L37.1309 10.3882L36.9964 9.74775C36.7829 8.76735 36.3558 8.06367 35.6597 7.54184C35.3196 7.28883 35.2801 7.23349 35.375 7.1307C35.6044 6.86979 35.897 6.18192 35.9445 5.77079C36.0789 4.61644 35.2484 3.38303 34.1174 3.08258C33.6507 2.95608 32.757 3.03514 32.3536 3.24071C30.9457 3.9602 30.4869 5.71544 31.3807 6.94885L31.618 7.27302L31.357 7.43115C30.653 7.866 30.044 8.8385 29.87 9.811L29.7593 10.3882L29.4033 9.98494C28.3672 8.8385 27.9243 7.05164 28.2644 5.43081C28.6045 3.82579 29.8858 2.29984 31.4203 1.68314C32.5988 1.20875 33.9117 1.16131 35.0982 1.55663ZM33.9908 4.39506C34.7897 4.79829 34.9241 5.77869 34.2756 6.41121C34.0383 6.6405 33.9355 6.68003 33.5321 6.71166C33.1524 6.73538 33.0101 6.71166 32.7965 6.58516C32.4722 6.38749 32.1796 5.88939 32.1796 5.5494C32.1796 5.06711 32.5197 4.52156 32.931 4.35553C33.1841 4.24483 33.7535 4.26855 33.9908 4.39506ZM34.3705 8.22971C34.853 8.43527 35.375 8.9571 35.5885 9.4394C35.7151 9.73984 35.7784 10.0482 35.8021 10.5779L35.8337 11.3132L35.4541 11.4793C34.2518 11.9932 32.3615 11.9774 31.3174 11.4318C31.0722 11.3132 31.0722 11.2974 31.0722 10.6965C31.0722 10.3565 31.1276 9.89797 31.1909 9.67659C31.3332 9.1943 31.8948 8.53806 32.3615 8.29296C32.9626 7.9846 33.7456 7.96088 34.3705 8.22971ZM20.8058 11.6769C20.8848 11.9378 21.0114 12.2146 21.0905 12.2857C21.225 12.4122 22.5854 12.8155 22.8701 12.8155C22.9492 12.8155 23.2102 12.6336 23.4396 12.4122L23.8667 12.009L24.3808 12.2936C24.6656 12.4518 24.9187 12.6178 24.9424 12.6573C24.974 12.7048 24.9345 12.942 24.8633 13.1871C24.7921 13.4322 24.7526 13.7168 24.7842 13.8275C24.8475 14.0805 25.7966 15.0688 26.0972 15.1874C26.287 15.2665 26.4136 15.2665 26.8011 15.1558C27.0621 15.0767 27.3073 15.0372 27.3469 15.0688C27.3864 15.0925 27.5525 15.3455 27.7107 15.6302L28.0034 16.1441L27.6 16.571C27.3785 16.8082 27.1966 17.0612 27.1966 17.1403C27.1966 17.4249 27.6 18.7849 27.7265 18.9193C27.7977 18.9983 28.0745 19.1248 28.3356 19.2039L28.818 19.3462V20.0104V20.6745L28.3356 20.8168C28.0745 20.8959 27.7977 21.0224 27.7265 21.1015C27.6 21.2359 27.1966 22.5958 27.1966 22.8804C27.1966 22.9595 27.3785 23.2125 27.6 23.4497L28.0034 23.8766L27.7107 24.3906C27.5525 24.6752 27.3864 24.9282 27.3469 24.9598C27.3073 24.9835 27.07 24.944 26.8249 24.8728C26.5797 24.8017 26.2949 24.7622 26.1842 24.7938C25.9311 24.857 24.9424 25.8058 24.8238 26.1063C24.7447 26.296 24.7447 26.4225 24.8554 26.8099C24.9345 27.0708 24.974 27.316 24.9424 27.3555C24.9187 27.395 24.6656 27.5611 24.3808 27.7192L23.8667 28.0117L23.4396 27.6085C23.2023 27.3871 22.9492 27.2053 22.8701 27.2053C22.5854 27.2053 21.225 27.6085 21.0905 27.735C21.0114 27.8062 20.8848 28.0829 20.8058 28.3438L20.6634 28.8261H19.999H19.3346L19.1922 28.3438C19.1131 28.0829 18.9866 27.8062 18.9075 27.735C18.773 27.6085 17.4126 27.2053 17.1279 27.2053C17.0488 27.2053 16.7957 27.3871 16.5584 27.6085L16.1313 28.0117L15.6171 27.7192C15.3324 27.5611 15.0793 27.395 15.0556 27.3555C15.0239 27.316 15.0635 27.0708 15.1426 26.8099C15.2533 26.4225 15.2533 26.296 15.1742 26.1063C15.0556 25.8058 14.0669 24.857 13.8138 24.7938C13.7031 24.7622 13.4183 24.8017 13.1731 24.8728C12.9279 24.944 12.6906 24.9835 12.6511 24.9598C12.6115 24.9282 12.4454 24.6752 12.2873 24.3906L11.9946 23.8766L12.398 23.4497C12.6195 23.2125 12.8014 22.9595 12.8014 22.8804C12.8014 22.5958 12.398 21.2359 12.2714 21.1015C12.2003 21.0224 11.9234 20.8959 11.6624 20.8168L11.1799 20.6745V20.0104V19.3462L11.6624 19.2039C11.9234 19.1248 12.2003 18.9983 12.2714 18.9193C12.398 18.7849 12.8014 17.4249 12.8014 17.1403C12.8014 17.0612 12.6195 16.8082 12.398 16.571L11.9946 16.1441L12.2873 15.6302C12.4454 15.3455 12.6115 15.0925 12.6511 15.0688C12.6906 15.0372 12.9358 15.0767 13.1968 15.1558C13.5844 15.2665 13.711 15.2665 13.9008 15.1874C14.2014 15.0688 15.1505 14.0805 15.2138 13.8275C15.2454 13.7168 15.2059 13.4322 15.1347 13.1871C15.0635 12.942 15.0239 12.7048 15.0556 12.6573C15.0793 12.6178 15.3324 12.4518 15.6171 12.2936L16.1313 12.009L16.5584 12.4122C16.7877 12.6336 17.0488 12.8155 17.1279 12.8155C17.4126 12.8155 18.773 12.4122 18.9075 12.2857C18.9866 12.2146 19.1131 11.9537 19.1764 11.7165C19.2476 11.4714 19.3267 11.2421 19.3425 11.2104C19.3662 11.1788 19.6668 11.163 20.0227 11.1709L20.6634 11.1946L20.8058 11.6769ZM7.85005 28.3122C10.6263 29.0158 12.3268 31.7752 11.7336 34.5899C11.5359 35.5308 11.0613 36.3847 10.3257 37.1279C9.20257 38.2506 8.11106 38.7092 6.5529 38.7092C5.76195 38.7092 5.5484 38.6776 4.93937 38.4799C3.31002 37.9423 2.06032 36.693 1.52248 35.0564C1.32474 34.4555 1.29311 34.242 1.29311 33.4514C1.29311 31.8938 1.75185 30.7948 2.86709 29.6958C4.21961 28.3517 6.04669 27.8457 7.85005 28.3122ZM34.7422 28.3122C35.6755 28.5494 36.3953 28.9605 37.1309 29.6958C38.2461 30.7948 38.7049 31.8938 38.7049 33.4514C38.7049 34.242 38.6732 34.4555 38.4755 35.0643C37.9376 36.693 36.688 37.9423 35.0507 38.4799C34.4496 38.6776 34.236 38.7092 33.4451 38.7092C31.8869 38.7092 30.7875 38.2506 29.6881 37.1358C28.644 36.0842 28.1457 34.8825 28.1457 33.4514C28.1457 30.0121 31.4203 27.4583 34.7422 28.3122Z" fill="#F65E01"/>
<path d="M4.14847 2.9403L3.927 3.11425L3.95864 4.38719C3.98237 5.72338 4.03773 5.95267 4.43321 6.38753L4.5914 6.56147L4.37784 6.8382C4.01401 7.31259 3.95073 7.62094 3.94282 8.87016C3.94282 10.4989 3.70554 10.3645 6.6004 10.3645H8.90205L9.06815 10.1826C9.23425 10.0087 9.24216 9.92173 9.24216 8.85435C9.23425 7.62094 9.17098 7.31259 8.80714 6.8382L8.59359 6.56147L8.75177 6.38753C9.14725 5.95267 9.20261 5.72338 9.22634 4.38719L9.25798 3.11425L9.03652 2.9403C8.83087 2.78217 8.75177 2.77427 6.59249 2.77427C4.43321 2.77427 4.35411 2.78217 4.14847 2.9403ZM7.97665 4.63229C7.97665 5.68385 7.70773 5.93686 6.59249 5.93686C5.47726 5.93686 5.20834 5.68385 5.20834 4.63229V4.0393H6.59249H7.97665V4.63229ZM7.45462 7.32049C7.84219 7.51025 7.97665 7.80279 7.97665 8.49856V9.09945H6.59249H5.20834V8.49856C5.20834 7.8107 5.33489 7.51025 5.71454 7.3284C6.04674 7.16236 7.11452 7.16236 7.45462 7.32049Z" fill="#F65E01"/>
<path d="M18.844 16.0491C17.5311 16.4207 16.4 17.5671 16.0362 18.8875C15.3006 21.5203 17.27 24.1216 19.9988 24.1216C21.1536 24.1216 22.0553 23.7421 22.8937 22.904C24.1908 21.6073 24.4835 19.7967 23.6688 18.1364C23.3999 17.5829 22.6722 16.8081 22.1027 16.4602C21.1931 15.9147 19.8802 15.7486 18.844 16.0491ZM21.201 17.4169C21.7784 17.6857 22.3242 18.2313 22.5931 18.8084C22.775 19.1958 22.8067 19.3619 22.8067 20.0102C22.8067 20.6585 22.775 20.8246 22.5931 21.212C22.3242 21.7892 21.7784 22.3347 21.201 22.6035C20.8135 22.7854 20.6474 22.817 19.9988 22.817C19.3502 22.817 19.1841 22.7854 18.7966 22.6035C17.2068 21.8603 16.661 19.8679 17.6339 18.3973C17.9423 17.9387 18.3853 17.5908 18.9548 17.3457C19.5875 17.0848 20.5525 17.1085 21.201 17.4169Z" fill="#F65E01"/>
<path d="M8.42744 30.5022C8.3958 30.5259 8.37207 31.7356 8.37207 33.1904V35.8232H9.00483H9.63758V33.135V30.4468H9.06019C8.73591 30.4468 8.45116 30.4706 8.42744 30.5022Z" fill="#F65E01"/>
<path d="M5.92017 33.728V35.8232H6.55292H7.18568V33.728V31.6328H6.55292H5.92017V33.728Z" fill="#F65E01"/>
<path d="M3.46826 34.3605V35.8232H4.10102H4.73378V34.3605V32.8978H4.10102H3.46826V34.3605Z" fill="#F65E01"/>
<path d="M33.2475 29.4428C33.113 29.5535 33.026 29.7274 32.9944 29.933C32.9628 30.2176 32.9232 30.2651 32.6227 30.3916C31.46 30.8739 30.9538 32.21 31.5074 33.3328C31.8554 34.0444 32.5356 34.4476 33.556 34.5266C33.9198 34.5583 34.2441 34.6373 34.3944 34.7243C35.122 35.175 34.7424 36.2977 33.8644 36.2977C33.382 36.2977 33.0735 36.1396 32.6147 35.6731C32.2825 35.3331 32.1797 35.2699 31.9345 35.2699C31.7052 35.2699 31.5944 35.3173 31.4758 35.4754C31.3809 35.594 31.3097 35.7601 31.3097 35.847C31.3097 36.2344 32.0374 37.0093 32.6938 37.3176C33.026 37.4758 33.0498 37.4995 33.0498 37.8078C33.0498 38.0371 33.1051 38.1715 33.2475 38.3139C33.6509 38.725 34.3153 38.4325 34.3153 37.8474C34.3153 37.5944 34.3469 37.5627 34.7345 37.3809C35.7311 36.9223 36.2294 35.934 35.9842 34.9062C35.7548 33.9574 35.0271 33.4197 33.817 33.2932C33.0893 33.2221 32.939 33.1667 32.7017 32.9058C32.504 32.6844 32.504 32.0835 32.7097 31.8543C33.2317 31.2771 33.9989 31.3878 34.6949 32.1389C34.8848 32.3366 35.13 32.5263 35.2407 32.55C35.6678 32.6607 36.0633 32.2259 35.9525 31.7752C35.8655 31.451 35.2328 30.8106 34.7187 30.5339C34.252 30.2888 34.2362 30.273 34.2362 29.9646C34.2362 29.3637 33.6825 29.0712 33.2475 29.4428Z" fill="#F65E01"/>
</svg>
