<svg width="27" height="44" viewBox="0 0 27 44" fill="none" xmlns="http://www.w3.org/2000/svg">
<path fill-rule="evenodd" clip-rule="evenodd" d="M18.048 35.5V28.0648H20.5428L20.9172 25.1668H18.0474V23.317C18.048 22.4782 18.2808 21.9064 19.4838 21.9064L21.018 21.9058V19.3138C20.7528 19.279 19.842 19.1998 18.7824 19.1998C16.5696 19.1998 15.0552 20.5498 15.0552 23.0302V25.1668H12.5532V28.0648H15.0552V35.5H18.048ZM5.859 35.5C5.27403 35.4997 4.8 35.0254 4.8 34.4404V17.3596C4.8 16.774 5.274 16.3 5.8596 16.3H22.9404C23.5254 16.3 24 16.774 24 17.3596V34.4404C24 35.0254 23.5254 35.5 22.9404 35.5H5.8596" fill="white"/>
</svg>
