<svg width="40" height="40" viewBox="0 0 40 40" fill="none" xmlns="http://www.w3.org/2000/svg">
<path d="M4.41406 4.44531C3.71094 4.61719 3.07031 5.14844 2.73438 5.82031L2.53906 6.21094V17.5V28.7891L2.80469 29.2812C3.10156 29.8281 3.34375 30.0625 3.9375 30.375L4.33594 30.5859L7.04688 30.6094L9.76562 30.6328L9.96094 30.4375C10.1953 30.2031 10.2188 29.8594 10.0078 29.6016L9.85938 29.4141L7.20312 29.375C4.67188 29.3359 4.53125 29.3281 4.32812 29.1719C4.21094 29.0859 4.03906 28.9141 3.95312 28.7969C3.78906 28.5859 3.78906 28.5312 3.76562 19.6094L3.75 10.6328L8.33594 10.6094L12.9297 10.5859L13.3203 10.4062C13.5391 10.3047 13.875 10.0859 14.0781 9.91406C14.7734 9.33594 13.9531 9.375 24.4844 9.375C33.6719 9.375 33.9766 9.36719 34.1484 9.22656C34.4062 9.01562 34.4062 8.48438 34.1484 8.27344C33.9688 8.125 33.7188 8.125 24.2656 8.14062L14.5703 8.16406L14.1797 8.34375C13.9688 8.44531 13.625 8.66406 13.4219 8.83594C12.75 9.39844 12.9922 9.375 8.125 9.375H3.74219L3.76562 7.89844C3.78906 6.28125 3.8125 6.21094 4.32812 5.82812L4.53906 5.66406H20H35.4609L35.6719 5.82812C35.7891 5.91406 35.9609 6.08594 36.0469 6.20312C36.2109 6.41406 36.2109 6.42969 36.2109 17.5C36.2109 28.5703 36.2109 28.5859 36.0469 28.7969C35.9609 28.9141 35.7891 29.0859 35.6719 29.1719C35.4688 29.3281 35.3281 29.3359 32.875 29.375L30.2969 29.4141L30.1094 29.6328C29.8594 29.9219 29.875 30.1172 30.1562 30.3984L30.3906 30.6328L33.0234 30.6094L35.6641 30.5859L36.0625 30.375C36.6562 30.0625 36.8984 29.8281 37.1953 29.2812L37.4609 28.7891V17.5V6.21094L37.1953 5.71875C36.8984 5.17188 36.6562 4.9375 36.0625 4.625L35.6641 4.41406L20.1562 4.39844C11.625 4.39844 4.54688 4.41406 4.41406 4.44531Z" fill="#F65E01"/>
<path d="M5.51567 7.05469C5.27348 7.29688 5.25004 7.64062 5.46098 7.89844C5.57035 8.03906 5.68754 8.08594 5.93754 8.08594C6.73442 8.08594 6.79692 7.03125 6.00004 6.90625C5.76567 6.86719 5.67973 6.89062 5.51567 7.05469Z" fill="#F65E01"/>
<path d="M8.01567 7.05469C7.77348 7.29688 7.75004 7.64062 7.96098 7.89844C8.07035 8.03906 8.18754 8.08594 8.43754 8.08594C9.23442 8.08594 9.29692 7.03125 8.50004 6.90625C8.26567 6.86719 8.17973 6.89062 8.01567 7.05469Z" fill="#F65E01"/>
<path d="M10.5157 7.05469C10.2735 7.29688 10.25 7.64062 10.461 7.89844C10.5704 8.03906 10.6875 8.08594 10.9375 8.08594C11.7344 8.08594 11.7969 7.03125 11 6.90625C10.7657 6.86719 10.6797 6.89062 10.5157 7.05469Z" fill="#F65E01"/>
<path d="M24.7188 14.5547C24.4453 14.7891 24.4297 15.1719 24.6797 15.4141C24.8203 15.5547 24.9609 15.5938 25.5469 15.625L26.25 15.6641L22.4219 19.4922L18.5938 23.3203L17.6797 22.4062C16.6797 21.4219 16.5078 21.2969 16.2266 21.3672C16.125 21.3984 15.3984 22.0625 14.6172 22.8438C13.3906 24.0781 13.2031 24.2969 13.2031 24.5078C13.2031 24.6875 13.2734 24.8047 13.4453 24.9531C13.8828 25.3203 14.0312 25.2344 15.3516 23.9141L16.3594 22.8906L17.3125 23.8281C18.6797 25.1875 18.3047 25.3281 21.3047 22.3281C23.3594 20.2812 23.7578 19.9062 23.8594 19.9922C24.0547 20.1562 24.6016 21.3359 24.7734 21.9922C25.0234 22.8984 25.0234 24.5469 24.7891 25.4297C24.5781 26.2031 24.3125 26.8047 23.8984 27.4609C23.6484 27.8672 23.5859 28.0156 23.6328 28.1875C23.6641 28.3281 24.5625 29.2812 26.2188 30.9375C28.5078 33.2344 28.75 33.5078 28.75 33.7344C28.75 34.0781 28.4531 34.375 28.1094 34.375C27.8828 34.375 27.6016 34.125 25.2734 31.7969C23.4297 29.9531 22.6406 29.2188 22.5156 29.2188C22.4141 29.2188 22.0312 29.4062 21.6484 29.6328C20.0234 30.6172 18.1562 30.8672 16.3594 30.3516C13.2344 29.4531 11.25 26.8672 11.25 23.6875C11.25 20.5547 13.6641 17.6406 16.8125 17C18 16.7578 19.5469 16.9062 20.6953 17.375C20.9766 17.4844 21.2891 17.5781 21.4062 17.5781C21.8594 17.5781 22.1172 16.9297 21.8203 16.5781C21.6484 16.375 20.9141 16.0781 20.0156 15.8438C19.0625 15.5938 17.1406 15.5938 16.2266 15.8438C13.2109 16.6641 11.0781 18.7656 10.2188 21.7734C10.0703 22.2969 10.0391 22.5703 10.0391 23.6719C10.0391 24.7656 10.0625 25.0547 10.2109 25.5938C10.8906 28.0781 12.5 30.0391 14.7266 31.1016C15.9844 31.7031 16.6016 31.8359 18.0859 31.8359C19.6719 31.8281 20.2109 31.7031 21.8203 30.9609L22.4297 30.6719L24.8281 33.0547C27.3594 35.5703 27.4297 35.625 28.125 35.625C29.1094 35.625 30 34.7344 30 33.7422C30 33.0391 29.8984 32.9141 27.4062 30.4141L25.0469 28.0547L25.4062 27.2891C25.6094 26.8672 25.8203 26.3438 25.8828 26.1328C26.5547 23.9141 26.2344 21.375 25.0391 19.4922L24.6953 18.9453L25.8828 17.75L27.0703 16.5625L27.1094 17.2344C27.1484 17.8516 27.1719 17.9219 27.3672 18.0938C27.6328 18.3203 27.8828 18.3281 28.1562 18.1172L28.3594 17.9609V16.3281V14.6953L28.1562 14.5391C27.9609 14.3828 27.8438 14.375 26.4375 14.375C24.9688 14.375 24.9219 14.3828 24.7188 14.5547Z" fill="#F65E01"/>
</svg>
