<svg width="40" height="40" viewBox="0 0 40 40" fill="none" xmlns="http://www.w3.org/2000/svg">
<path d="M11.7188 0.773438C8.97658 1.375 6.92971 3.30469 6.15627 5.99219C5.91408 6.82031 5.89846 8.74219 6.12502 9.5625C6.57815 11.2344 7.66408 12.8281 8.96096 13.7266L9.37502 14.0078V14.875V15.7422L7.05471 13.4219C4.47658 10.8516 4.39065 10.7891 3.50783 10.7812C2.85158 10.7812 2.35158 11.0234 1.80471 11.6016C1.28127 12.1562 1.07033 12.6328 1.07033 13.2422C1.07033 14.1562 1.02346 14.1016 5.39065 18.4766L9.37502 22.4609V30.3672C9.37502 35.7656 9.39846 38.3438 9.46096 38.4922C9.57033 38.7891 9.90627 39.1406 10.211 39.2656C10.4219 39.3594 12.7031 39.375 24.1563 39.375C37.4375 39.375 37.8594 39.3672 38.1797 39.2266C38.3828 39.1328 38.586 38.9531 38.7266 38.7422L38.9453 38.4062L38.9688 22.6328C38.9766 11.3203 38.961 6.76562 38.8985 6.53125C38.8281 6.25781 38.4844 5.875 36.5781 3.96094C35.3438 2.71875 34.2031 1.64062 34.0469 1.55469C33.7656 1.41406 33.4844 1.40625 25.0938 1.40625H16.4219L15.9922 1.21094C14.7813 0.679688 12.9844 0.492188 11.7188 0.773438ZM14.25 1.98438C15.4531 2.21875 16.375 2.71875 17.3125 3.63281C18.0313 4.34375 18.4844 5.05469 18.7969 5.97656C19.0781 6.80469 19.1485 8.30469 18.9453 9.16406C18.8203 9.71875 18.1797 11.1719 18.0625 11.1719C18.0313 11.1719 17.8672 10.9062 17.7031 10.5781C17.3203 9.83594 16.5078 8.99219 15.7578 8.5625L15.2344 8.25781L15.4297 7.99219C15.5469 7.85156 15.7266 7.53125 15.8438 7.28125C16.125 6.67969 16.1328 5.72656 15.8672 5.0625C15.625 4.42969 15.0391 3.82031 14.3906 3.5C13.9141 3.26562 13.8125 3.24219 13.125 3.25C12.5 3.25 12.3203 3.28125 11.9531 3.45312C11.0703 3.85938 10.4375 4.67188 10.2344 5.64844C10.086 6.375 10.2891 7.25781 10.75 7.85938C10.8985 8.04688 11.0156 8.21875 11.0156 8.23438C11.0156 8.25 10.8047 8.39062 10.5469 8.54688C9.60158 9.10156 9.00002 9.74219 8.47658 10.7109L8.21877 11.1953L8.01565 10.8906C7.51565 10.125 7.18752 8.92188 7.18752 7.82812C7.19533 6.21094 7.76565 4.82031 8.90627 3.67188C10.3438 2.21875 12.2813 1.60938 14.25 1.98438ZM33.125 4.57031C33.125 7.35938 32.9844 7.21875 35.8047 7.25L37.7344 7.27344L37.7188 22.6797L37.6953 38.0859L24.1641 38.1094L10.625 38.125V30.9219V23.7109L11.3438 24.4297C11.7422 24.8203 12.1406 25.1719 12.2266 25.2188C12.4063 25.3125 15.4922 26.1484 15.7422 26.1719C16.1953 26.2188 16.4844 26.0078 16.4844 25.6328C16.4844 25.5078 16.2735 24.6172 16.0156 23.6641L15.5547 21.9219L13.086 19.4531L10.625 16.9922V15.8125V14.6406L11.3516 14.8281C12.3516 15.0938 13.8047 15.1016 14.7969 14.8594C17.3047 14.2344 19.25 12.4062 20.0313 9.92969C20.3828 8.8125 20.4219 7.14844 20.1172 6.00781C19.8985 5.19531 19.2656 3.96875 18.711 3.28125L18.2031 2.65625H25.6641H33.125V4.57031ZM35.625 4.80469L36.836 6.01562H35.6016H34.375V4.80469C34.375 4.14062 34.3828 3.59375 34.3985 3.59375C34.4063 3.59375 34.961 4.14062 35.625 4.80469ZM13.8985 4.65625C14.8594 5.14062 15.125 6.38281 14.4375 7.21875C13.7344 8.07812 12.375 8.01562 11.75 7.09375C11.2813 6.40625 11.3594 5.53906 11.9297 4.98438C12.5156 4.41406 13.1875 4.30469 13.8985 4.65625ZM14.3125 9.29688C15.1875 9.5625 16.0703 10.25 16.5469 11.0234C16.7188 11.3125 17.0313 12.125 17.0313 12.3047C17.0313 12.4141 15.9297 13.1328 15.4297 13.3359C14.2578 13.8281 12.7656 13.9297 11.6094 13.6016C10.8906 13.4062 9.90627 12.9141 9.50002 12.5547L9.21096 12.3047L9.32815 11.9141C9.46877 11.4453 9.91408 10.6797 10.2578 10.3281C11.2656 9.28906 12.9219 8.86719 14.3125 9.29688ZM3.99221 12.1641C4.1094 12.2344 4.22658 12.3359 4.25002 12.3906C4.26565 12.4375 3.93752 12.8203 3.51565 13.2422C2.82033 13.9375 2.7344 14 2.6094 13.8984C2.53908 13.8359 2.42971 13.6719 2.36721 13.5312C2.21096 13.1562 2.34377 12.8281 2.81252 12.3906C3.24221 11.9844 3.57815 11.9219 3.99221 12.1641ZM9.67971 17.7734L14.1016 22.1875L13.2969 22.9844L12.5 23.7891L8.0469 19.3359L3.59377 14.8828L4.35158 14.125C4.77346 13.7031 5.14846 13.3594 5.18752 13.3594C5.2344 13.3594 7.25002 15.3438 9.67971 17.7734ZM14.7969 23.9609C14.8672 24.2266 14.9453 24.5078 14.9766 24.5781C15.0313 24.7266 14.9844 24.7188 14.1485 24.4766L13.7344 24.3594L14.1875 23.8984C14.4375 23.6484 14.6485 23.4531 14.6563 23.4609C14.6641 23.4688 14.7266 23.6953 14.7969 23.9609Z" fill="#F65E01"/>
<path d="M30.0781 10.758C30.0156 10.7814 29.3125 11.1799 28.5156 11.6252C26.7109 12.6564 25.2812 13.3439 24.1797 13.7268L23.3203 14.0236L21.2812 14.0627L19.25 14.1018L18.6641 14.3908C17.9375 14.7502 17.3516 15.3439 17.0078 16.0705C16.7734 16.5705 16.7578 16.6486 16.7578 17.5002C16.7578 18.3518 16.7734 18.4299 17.0078 18.9299C17.5312 20.0471 18.6406 20.8283 19.8125 20.9143L20.375 20.9611L20.4062 22.7268C20.4297 24.3752 20.4453 24.5158 20.6094 24.8518C20.9844 25.6096 21.6484 26.0627 22.5234 26.1486C23.1172 26.2033 23.3828 26.1486 23.5938 25.9377C23.7422 25.7893 23.75 25.6643 23.75 23.4377C23.75 22.1486 23.7656 21.0939 23.7812 21.0939C23.8047 21.0939 24.1094 21.1877 24.4688 21.2971C25.7969 21.7111 27.3125 22.4533 29.125 23.5705C29.5703 23.8439 30.0781 24.1018 30.2578 24.1486C30.8828 24.3127 31.5547 23.9768 31.875 23.3518C32.0156 23.0861 32.0312 22.8908 32.0312 21.4221V19.7893L32.3984 19.6486C32.5938 19.5705 32.9141 19.3518 33.1094 19.1643C33.5859 18.6877 33.7812 18.2189 33.7812 17.5393C33.7891 16.5861 33.2422 15.7736 32.375 15.4143L32.0312 15.2736V13.5627C32.0312 11.9768 32.0156 11.8205 31.8672 11.5002C31.6328 11.0314 31.2031 10.758 30.6406 10.7268C30.3906 10.7189 30.1406 10.7268 30.0781 10.758ZM30.7656 17.4299C30.7812 23.633 30.8438 23.1877 30.1016 22.6955L29.6875 22.4221V17.4221V12.4221L30.0625 12.1877C30.2656 12.0549 30.5 11.9611 30.5859 11.9689C30.7422 11.9924 30.7422 12.0549 30.7656 17.4299ZM28.4375 17.3986V21.6799L27.2422 21.0939C26.1797 20.5705 24.7188 20.0236 24.0078 19.883L23.75 19.8283V17.5002V15.1721L24.3984 14.9611C25.3203 14.6643 26.5469 14.133 27.5391 13.5939C28.0156 13.3439 28.4062 13.133 28.4219 13.1252C28.4297 13.1252 28.4375 15.0471 28.4375 17.3986ZM22.5 17.5002V19.6877H21.0781C19.7422 19.6877 19.625 19.6721 19.2578 19.5002C17.9141 18.883 17.5547 17.258 18.4766 16.0471C18.5859 15.9064 18.8906 15.6877 19.1484 15.5549L19.6328 15.3127H21.0703H22.5V17.5002ZM32.5078 17.2502C32.6172 17.5939 32.5078 18.0158 32.2266 18.2814L32.0312 18.4611V17.5393V16.6174L32.2266 16.7971C32.3281 16.8908 32.4609 17.1018 32.5078 17.2502ZM22.5 22.9299V24.9221L22.25 24.8205C22.1172 24.7658 21.9297 24.6252 21.8438 24.5002C21.6953 24.3049 21.6797 24.1643 21.6562 22.7189C21.6406 21.8596 21.6484 21.1018 21.6719 21.0471C21.7031 20.9768 21.8438 20.9377 22.1094 20.9377H22.5V22.9299Z" fill="#F65E01"/>
<path d="M34.3751 13.7186C33.7423 14.328 33.6095 14.578 33.7658 14.8983C33.8908 15.1639 34.2189 15.3358 34.4845 15.2655C34.5861 15.242 34.922 14.9608 35.2267 14.6483C35.8595 13.9998 35.9298 13.742 35.5861 13.3983C35.2501 13.0545 34.9845 13.1248 34.3751 13.7186Z" fill="#F65E01"/>
<path d="M35.2656 16.9453C35.0469 17.0391 34.8438 17.3281 34.8438 17.5469C34.8438 17.6406 34.9141 17.8047 35.0078 17.9219C35.1641 18.1172 35.1875 18.125 36.0547 18.125C36.9219 18.125 36.9453 18.1172 37.1016 17.9219C37.3281 17.6406 37.3125 17.3359 37.0625 17.1016C36.8828 16.9375 36.7812 16.9141 36.1484 16.8984C35.75 16.8828 35.3516 16.9062 35.2656 16.9453Z" fill="#F65E01"/>
<path d="M33.9375 19.7969C33.6719 19.9141 33.5938 20.0469 33.5938 20.4062C33.5938 20.75 34.6406 21.7969 34.9844 21.7969C35.3359 21.7969 35.625 21.5312 35.625 21.1953C35.625 20.9531 35.5469 20.8437 35.0625 20.3516C34.75 20.0312 34.4219 19.7578 34.3359 19.7344C34.25 19.7109 34.0703 19.7422 33.9375 19.7969Z" fill="#F65E01"/>
<path d="M15.3516 27.5391C15.2266 27.6562 15.1562 27.8203 15.1562 27.9688C15.1562 28.1172 15.2266 28.2812 15.3516 28.3984L15.5391 28.5938H24.1328H32.7266L32.9375 28.4141C33.0938 28.2812 33.1484 28.1562 33.1484 27.9688C33.1484 27.7812 33.0938 27.6562 32.9375 27.5234L32.7266 27.3438H24.1328H15.5391L15.3516 27.5391Z" fill="#F65E01"/>
<path d="M15.3516 30.8984C15.2266 31.0156 15.1562 31.1797 15.1562 31.3281C15.1562 31.4766 15.2266 31.6406 15.3516 31.7578L15.5391 31.9531H24.1328H32.7266L32.9375 31.7734C33.0938 31.6406 33.1484 31.5156 33.1484 31.3281C33.1484 31.1406 33.0938 31.0156 32.9375 30.8828L32.7266 30.7031H24.1328H15.5391L15.3516 30.8984Z" fill="#F65E01"/>
<path d="M15.3516 34.2578C15.2266 34.375 15.1562 34.5391 15.1562 34.6875C15.1562 34.8359 15.2266 35 15.3516 35.1172L15.5391 35.3125H24.1328H32.7266L32.9375 35.1328C33.0938 35 33.1484 34.875 33.1484 34.6875C33.1484 34.5 33.0938 34.375 32.9375 34.2422L32.7266 34.0625H24.1328H15.5391L15.3516 34.2578Z" fill="#F65E01"/>
</svg>
