<svg width="17" height="17" viewBox="0 0 17 17" fill="none" xmlns="http://www.w3.org/2000/svg">
<g clip-path="url(#clip0_904_1862)">
<path d="M14.4511 2.47137C12.8767 0.88245 10.7304 -0.00792743 8.49362 0C3.85369 0 0.07225 3.78038 0.068 8.42138C0.068 9.90781 0.456875 11.3539 1.19106 12.6342L0 17L4.46675 15.8291C5.70244 16.5016 7.0868 16.8541 8.49362 16.8544H8.49788C13.1389 16.8544 16.9193 13.0741 16.9235 8.42881C16.9256 6.19276 16.0353 4.04833 14.45 2.47137M8.49362 15.4286C7.23881 15.429 6.00706 15.0913 4.92788 14.4511L4.67287 14.2981L2.023 14.9929L2.73062 12.4079L2.56487 12.1412C1.86342 11.0259 1.49244 9.73465 1.49494 8.41712C1.49494 4.5645 4.63675 1.42163 8.49788 1.42163C10.3558 1.41829 12.1381 2.15685 13.4491 3.47331C14.7647 4.78465 15.5022 6.56705 15.4976 8.42456C15.4934 12.291 12.3516 15.4286 8.49362 15.4286ZM12.3346 10.1862C12.1252 10.081 11.0914 9.57206 10.897 9.49981C10.7036 9.43075 10.5623 9.39462 10.4242 9.605C10.2829 9.81431 9.87913 10.2914 9.758 10.4284C9.63688 10.5697 9.5115 10.5857 9.30112 10.4816C9.09181 10.3753 8.41288 10.1543 7.60962 9.435C6.98275 8.87719 6.56306 8.18656 6.43769 7.97725C6.31656 7.76688 6.426 7.65425 6.53119 7.54906C6.62362 7.45556 6.7405 7.30256 6.84569 7.18144C6.95194 7.06031 6.987 6.97106 7.05606 6.83081C7.12513 6.68844 7.09219 6.56731 7.04012 6.46212C6.987 6.35694 6.56731 5.31887 6.38987 4.90025C6.21987 4.48694 6.04669 4.54431 5.91706 4.539C5.79594 4.53156 5.65462 4.53156 5.51331 4.53156C5.29758 4.53692 5.09387 4.63204 4.95125 4.794C4.75787 5.00437 4.21706 5.51331 4.21706 6.55137C4.21706 7.58944 4.97144 8.58712 5.07769 8.72844C5.18181 8.86975 6.55881 10.9937 8.67212 11.9074C9.1715 12.1252 9.56463 12.2538 9.87169 12.3516C10.3764 12.5131 10.8322 12.4886 11.1956 12.4366C11.5993 12.3749 12.4397 11.9266 12.6172 11.4346C12.7914 10.9416 12.7914 10.5209 12.7383 10.4327C12.6863 10.3434 12.5449 10.2914 12.3346 10.1862Z" fill="white"/>
</g>
<defs>
<clipPath id="clip0_904_1862">
<rect width="17" height="17" fill="white"/>
</clipPath>
</defs>
</svg>
