<svg width="70" height="70" viewBox="0 0 70 70" fill="none" xmlns="http://www.w3.org/2000/svg">
<path d="M62.128 11.667C63.3267 11.667 64.1667 12.5799 64.1667 13.6007C64.1667 14.3241 63.7438 15.1028 62.7171 15.6482C57.5021 18.4132 51.4646 27.9741 51.4646 33.8716C60.2613 33.6032 64.0821 41.4024 64.0821 46.2907C64.0821 52.1445 59.013 58.3337 51.5171 58.3337C42.0671 58.3337 37.4296 50.9049 37.4296 42.8549C37.4296 25.4132 57.3621 11.667 62.128 11.667ZM30.5317 11.667C31.7275 11.667 32.5705 12.5799 32.5705 13.6007C32.5705 14.3241 32.1475 15.1028 31.1209 15.6482C25.9059 18.4132 19.8684 27.9741 19.8684 33.8716C28.665 33.6032 32.4859 41.4024 32.4859 46.2907C32.4859 52.1445 27.4138 58.3337 19.9209 58.3337C10.468 58.3337 5.83337 50.9049 5.83337 42.8549C5.83337 25.4132 25.763 11.667 30.5317 11.667Z" fill="#F65E01"/>
</svg>
