<svg width="19" height="19" viewBox="0 0 19 19" fill="none" xmlns="http://www.w3.org/2000/svg">
<g clip-path="url(#clip0_904_1849)">
<path d="M9.5 0C6.92194 0 6.59775 0.011875 5.58481 0.057C4.57188 0.1045 3.88194 0.263625 3.2775 0.49875C2.64349 0.737223 2.06921 1.11129 1.59481 1.59481C1.11159 2.06945 0.737565 2.64366 0.49875 3.2775C0.263625 3.88075 0.103312 4.57188 0.057 5.58125C0.011875 6.59656 0 6.91956 0 9.50119C0 12.0804 0.011875 12.4034 0.057 13.4164C0.1045 14.4281 0.263625 15.1181 0.49875 15.7225C0.742188 16.3471 1.06638 16.8768 1.59481 17.4052C2.12206 17.9336 2.65169 18.259 3.27631 18.5012C3.88194 18.7364 4.57069 18.8967 5.58244 18.943C6.59656 18.9881 6.91956 19 9.5 19C12.0804 19 12.4023 18.9881 13.4164 18.943C14.4269 18.8955 15.1192 18.7364 15.7237 18.5012C16.3573 18.2627 16.9312 17.8886 17.4052 17.4052C17.9336 16.8768 18.2578 16.3471 18.5012 15.7225C18.7352 15.1181 18.8955 14.4281 18.943 13.4164C18.9881 12.4034 19 12.0804 19 9.5C19 6.91956 18.9881 6.59656 18.943 5.58244C18.8955 4.57188 18.7352 3.88075 18.5012 3.2775C18.2625 2.64364 17.8884 2.06943 17.4052 1.59481C16.9309 1.11111 16.3566 0.737016 15.7225 0.49875C15.1169 0.263625 14.4258 0.103312 13.4152 0.057C12.4011 0.011875 12.0793 0 9.49763 0L9.50119 0M8.64856 1.71238H9.50119C12.0377 1.71238 12.3381 1.72069 13.3392 1.767C14.2654 1.80856 14.7689 1.96413 15.1038 2.09356C15.5468 2.26575 15.8638 2.47237 16.1963 2.80487C16.5288 3.13737 16.7342 3.45325 16.9064 3.89738C17.0371 4.23106 17.1914 4.73456 17.233 5.66081C17.2793 6.66187 17.2888 6.96231 17.2888 9.49763C17.2888 12.0329 17.2793 12.3346 17.233 13.3356C17.1914 14.2619 17.0359 14.7642 16.9064 15.0991C16.7541 15.5116 16.511 15.8845 16.1951 16.1904C15.8626 16.5229 15.5468 16.7283 15.1026 16.9005C14.7701 17.0311 14.2666 17.1855 13.3392 17.2283C12.3381 17.2734 12.0377 17.2841 9.50119 17.2841C6.96469 17.2841 6.66306 17.2734 5.662 17.2283C4.73575 17.1855 4.23344 17.0311 3.89856 16.9005C3.48591 16.7484 3.11259 16.5057 2.80606 16.1904C2.48989 15.884 2.24642 15.5107 2.09356 15.0979C1.96413 14.7642 1.80856 14.2607 1.767 13.3344C1.72187 12.3334 1.71238 12.0329 1.71238 9.49525C1.71238 6.95875 1.72187 6.6595 1.767 5.65844C1.80975 4.73219 1.96412 4.22869 2.09475 3.89381C2.26694 3.45087 2.47356 3.13381 2.80606 2.80131C3.13856 2.46881 3.45444 2.26338 3.89856 2.09119C4.23344 1.96056 4.73575 1.80619 5.662 1.76344C6.53838 1.72306 6.878 1.71119 8.64856 1.71V1.71238ZM14.5718 3.28938C13.9426 3.28938 13.4318 3.80019 13.4318 4.42938C13.4318 5.05856 13.9426 5.56938 14.5718 5.56938C15.201 5.56938 15.7118 5.05856 15.7118 4.42938C15.7118 3.80019 15.201 3.28938 14.5718 3.28938ZM9.50119 4.62175C7.74 4.59427 6.10072 5.51812 5.2121 7.03893C4.32348 8.55975 4.32348 10.4414 5.2121 11.9623C6.10072 13.4831 7.74 14.4069 9.50119 14.3794C12.166 14.3379 14.3045 12.1658 14.3045 9.50059C14.3045 6.83543 12.166 4.66333 9.50119 4.62175ZM9.50119 6.33294C11.2491 6.33294 12.6683 7.75205 12.6683 9.5C12.6683 11.2479 11.2491 12.6671 9.50119 12.6671C7.75324 12.6671 6.33413 11.2479 6.33413 9.5C6.33413 7.75205 7.75324 6.33294 9.50119 6.33294Z" fill="white"/>
</g>
<defs>
<clipPath id="clip0_904_1849">
<rect width="19" height="19" fill="white"/>
</clipPath>
</defs>
</svg>
