<svg width="40" height="40" viewBox="0 0 40 40" fill="none" xmlns="http://www.w3.org/2000/svg">
<g clip-path="url(#clip0_774_647)">
<path d="M23.3594 0.0468712C23.25 0.0624962 22.8516 0.117184 22.461 0.164059C22.0782 0.210934 21.336 0.359371 20.8204 0.484371C14.9219 1.96093 10.4297 6.85156 9.4141 12.8906C9.23441 13.9531 9.17191 15.9922 9.2891 17.0078C9.42191 18.1094 9.71879 19.4531 10.0547 20.4297C10.6172 22.0781 11.7266 24.0312 12.8047 25.2734C13.0625 25.5703 13.2735 25.8437 13.2813 25.8672C13.2813 25.8984 13.0157 26.1562 12.6875 26.4453L12.1016 26.9766L11.6563 26.5391C10.9688 25.8594 10.3829 25.7031 9.7266 26.0078C9.51566 26.1094 7.96098 27.6172 4.87504 30.7109C-0.164023 35.7734 0.0312894 35.5312 0.0469144 36.5625C0.0547269 37.3594 0.250039 37.6875 1.30473 38.75C2.07816 39.5156 2.29691 39.6875 2.67973 39.8281C3.21879 40.0313 3.6641 40.0469 4.18754 39.875C4.53129 39.7578 5.00785 39.3125 9.20316 35.125C11.75 32.5859 13.8829 30.4219 13.9375 30.3125C14.2813 29.6562 14.1172 29.0078 13.4375 28.3203L12.9688 27.8437L13.5469 27.2734L14.1329 26.6953L14.7032 27.1797C16.9141 29.0625 19.6875 30.2656 22.7579 30.6641C23.5 30.7656 23.6329 30.7656 23.8282 30.6641C24.1875 30.4766 24.2579 30.0547 23.9688 29.7812C23.8282 29.6562 23.586 29.5937 22.8907 29.5C21.211 29.2812 19.9688 28.9141 18.4688 28.2031C16.8047 27.4141 15.5391 26.4844 14.2188 25.1016C12.1954 22.9687 10.8985 20.2187 10.5079 17.2422C9.80473 11.8437 12.1797 6.60937 16.7188 3.5625C17.5938 2.96875 19.2188 2.1875 20.1954 1.875C22.6797 1.08593 25.0235 0.968746 27.5625 1.49218L28.3594 1.66406V2.42968V3.19531L27.961 3.07812C26.7735 2.72656 25.0391 2.55468 23.6485 2.66406C18.5547 3.04687 14.1094 6.50781 12.461 11.3594C11.2813 14.8437 11.7422 18.9141 13.6797 22.0469C14.4922 23.3594 15.7579 24.7656 16.9141 25.6328C20.0079 27.9609 24.1016 28.7578 27.8985 27.7734C31.4297 26.8594 34.5079 24.2891 36.1329 20.9062C37 19.0859 37.3516 17.4844 37.3516 15.3516C37.3516 12.4141 36.3516 9.59375 34.5235 7.36718L34.0625 6.8125V5.82031V4.82812L34.5625 5.28906C35.5625 6.19531 36.5938 7.625 37.375 9.17968C39.2813 12.9609 39.2813 17.7109 37.3829 21.6016C35.3047 25.8516 31.4454 28.6953 26.7188 29.4531C26.3985 29.5078 26.0704 29.5781 26 29.6172C25.6485 29.8047 25.6407 30.375 25.9844 30.6016C26.1485 30.7109 26.25 30.7109 26.7813 30.6328C30.0547 30.125 32.8594 28.7656 35.1875 26.5547C40.0938 21.9141 41.3829 14.5625 38.3594 8.51562C37.4063 6.61718 36.0782 4.92187 34.5938 3.69531L34.0625 3.26562V2.07812C34.0625 0.718746 33.9844 0.476559 33.4688 0.179684C33.1797 0.00780869 33.086 -3.8147e-06 31.2657 -3.8147e-06C29.5469 -3.8147e-06 29.3438 0.0156212 29.0704 0.148434C28.9141 0.234371 28.7422 0.351559 28.6875 0.406246C28.6172 0.499996 28.461 0.484371 27.7188 0.335934C27.2344 0.242184 26.4922 0.124996 26.0625 0.0781212C25.3438 0.00780869 23.7891 -0.0156288 23.3594 0.0468712ZM32.9063 7.69531L32.9297 14.2109L33.1016 14.3828C33.3047 14.5937 33.7032 14.6094 33.8907 14.4219C34.0079 14.3047 34.0313 13.9922 34.0625 11.5L34.1016 8.71093L34.3985 9.17968C36.2657 12.1094 36.711 15.8828 35.586 19.1875C35.336 19.9219 34.7188 21.1797 34.3594 21.7031L34.1016 22.0703L34.0625 19.2344C34.0235 16.5391 34.0157 16.3906 33.875 16.2812C33.6563 16.125 33.336 16.1484 33.1172 16.3203L32.9297 16.4687L32.9063 20.0234L32.8829 23.5859L32.4766 23.9531C31.6485 24.6953 29.9219 25.8594 29.6329 25.8594C29.5469 25.8594 29.5313 23.8359 29.5313 13.5703C29.5313 6.80468 29.5547 1.25 29.586 1.22656C29.6094 1.19531 30.3672 1.17187 31.2579 1.17187H32.8907L32.9063 7.69531ZM27.0313 4.05468C28.6016 4.42187 28.586 4.4375 26.6016 4.44531C24.625 4.45312 24.4532 4.49218 24.1016 4.95312C23.961 5.14843 23.9454 5.3125 23.9063 7.01562L23.8672 8.86718L21.9922 8.90625C19.3047 8.96093 19.4297 8.84375 19.375 11.4844L19.336 13.3203L17.4454 13.3594C15.6954 13.3984 15.5391 13.4062 15.336 13.5625C14.836 13.9297 14.8438 13.8828 14.8438 17.9687C14.836 22.2109 14.8985 21.9922 14.1407 20.4297C13.2735 18.6406 13.0079 17.4609 13.0157 15.4297C13.0157 14.2812 13.0547 13.875 13.1954 13.2031C14.2188 8.39062 17.8125 4.84375 22.5391 3.97656C23.6172 3.77343 26.0469 3.82031 27.0313 4.05468ZM28.3438 16.0312L28.3204 26.4375L27.6563 26.6172C27.0782 26.7812 25.6172 27.0234 25.2188 27.0312C25.086 27.0312 25.0782 26.4687 25.0782 16.3281V5.625H26.7188H28.3594L28.3438 16.0312ZM23.8907 18.5312L23.8672 26.9922L23.4766 26.9687C22.8907 26.9297 21.9141 26.7422 21.1954 26.5156L20.5469 26.3203V18.2031V10.0781H22.2266H23.9063L23.8907 18.5312ZM19.375 20.1641V25.7969L18.9297 25.5469C18.1407 25.1016 17.375 24.5391 16.6875 23.8906L16.0157 23.2656V18.8984V14.5312H17.6954H19.375V20.1641ZM11.7422 28.2656C12.4141 28.9453 12.9688 29.5469 12.9688 29.6094C12.9688 29.6641 12.586 30.1016 12.1094 30.5781L11.25 31.4453L9.88285 30.0781L8.51566 28.7109L9.3516 27.875C9.87504 27.3437 10.25 27.0312 10.3516 27.0312C10.461 27.0312 10.9532 27.4687 11.7422 28.2656ZM9.04691 30.9609L10.3907 32.3047L9.9766 32.7187L9.57035 33.125L8.20316 31.7578L6.83598 30.3906L7.2266 30C7.43754 29.7891 7.63285 29.6094 7.65629 29.6094C7.67973 29.6094 8.30473 30.2187 9.04691 30.9609ZM7.40629 32.6016L8.75004 33.9453L6.38285 36.3047C5.05473 37.6406 3.92191 38.7031 3.7891 38.75C3.29691 38.9375 3.05473 38.8047 2.13285 37.8672C1.2266 36.9453 1.10941 36.7344 1.21098 36.2266C1.25785 36.0312 1.7891 35.4531 3.61723 33.6094C4.9141 32.3125 5.99223 31.25 6.01566 31.25C6.0391 31.25 6.6641 31.8594 7.40629 32.6016Z" fill="#F65E01"/>
</g>
<defs>
<clipPath id="clip0_774_647">
<rect width="40" height="40" fill="white"/>
</clipPath>
</defs>
</svg>
