<svg width="24" height="24" viewBox="0 0 24 24" fill="none" xmlns="http://www.w3.org/2000/svg">
<path d="M11.9998 2.75C8.3098 2.75 5.2998 5.76 5.2998 9.45C5.2998 14.03 11.2998 20.77 11.5498 21.05C11.7898 21.32 12.2098 21.32 12.4498 21.05C12.7098 20.77 18.6998 14.03 18.6998 9.45C18.6998 5.76 15.6898 2.75 11.9998 2.75Z" stroke="white" stroke-width="1.5" stroke-linecap="round" stroke-linejoin="round"/>
<path d="M12.3846 11.7852C13.6772 11.5795 14.5584 10.3647 14.3526 9.07204C14.1468 7.77936 12.9321 6.89824 11.6394 7.104C10.3468 7.30976 9.46563 8.52449 9.67139 9.81717C9.87715 11.1099 11.0919 11.991 12.3846 11.7852Z" stroke="white" stroke-width="1.5" stroke-linecap="round" stroke-linejoin="round"/>
</svg>
