<svg width="150" height="47" viewBox="0 0 150 47" fill="none" xmlns="http://www.w3.org/2000/svg">
<path d="M141.35 24.6435C138.23 27.8252 141.457 33.1463 145.546 31.5555C147.482 30.7875 148.827 28.5383 148.397 26.8378C147.536 23.3269 143.771 22.1201 141.35 24.6435Z" fill="#F65E01"/>
<path d="M69.4605 11.6208L69.5543 23.2715L70.4611 25.1095C71.3679 27.0068 73.2127 28.9041 74.9637 29.7638C75.7454 30.1492 79.091 30.8311 80.2792 30.8311C80.5606 30.8311 80.6544 30.0899 80.6544 28.074V25.2874L79.4663 24.9613C78.0592 24.5462 76.8085 23.3604 76.3082 21.9671C76.1206 21.4038 75.9642 19.4472 75.9642 17.6092V14.2889L78.3093 14.4371L80.6544 14.615V11.5911V8.59695H78.9034C75.9642 8.59695 75.9642 8.59695 75.9642 4.00191V-0.000232697H72.6811H69.3667L69.4605 11.6208Z" fill="white"/>
<path d="M32.7207 8.59699C29.5626 9.36777 26.5609 11.6801 25.2163 14.4668C24.6535 15.6526 24.5284 16.3937 24.5284 19.4176C24.5284 22.7082 24.591 23.0936 25.3727 24.6352C27.5614 28.8448 31.8139 30.9497 37.9737 30.8904C40.9441 30.8607 44.54 30.0603 45.478 29.1709C45.8219 28.8152 45.947 28.0444 45.947 26.0582C45.947 24.6055 45.8845 23.4197 45.8219 23.4197C45.7594 23.4197 45.1028 23.7458 44.3211 24.1609C41.2256 25.7914 36.1914 26.236 33.7838 25.0799C32.6581 24.5166 31.595 23.5087 31.2511 22.6786C31.0322 22.0857 31.1885 22.0857 38.7241 21.9375L46.416 21.7892V18.9729C46.3848 14.0814 44.54 11.0279 40.5689 9.33813C38.4114 8.41912 34.9094 8.09302 32.7207 8.59699ZM38.0362 14.2C38.9743 14.615 39.5371 15.119 40.0061 15.9787L40.6315 17.1942H35.7849H30.9071L31.0947 16.5123C31.8764 14.0814 35.1908 12.9845 38.0362 14.2Z" fill="white"/>
<path d="M55.9527 8.74507C53.9203 9.36763 51.3251 11.176 50.1056 12.8361C48.7298 14.7631 48.1357 16.8086 48.1357 19.5657C48.1357 22.2338 48.6986 24.22 49.9806 26.147C52.8572 30.4456 60.3928 32.2836 65.5207 29.9119L66.8965 29.2894V26.2063V23.1231L65.5207 24.0718C64.3326 24.8426 63.7697 25.0204 61.7686 25.139C58.8919 25.3169 56.9846 24.5758 55.7339 22.797C53.0135 18.8838 56.0778 13.933 61.2683 13.933C62.4877 13.933 65.2706 15.0596 65.9272 15.8007C66.7402 16.779 66.9278 16.275 66.834 13.1326L66.7402 9.93089L64.8641 9.2194C62.519 8.30039 58.1102 8.09287 55.9527 8.74507Z" fill="white"/>
<path d="M112.235 8.56787C109.859 9.27936 107.67 11.147 106.544 13.489C105.888 14.8823 105.825 15.416 105.731 22.7384L105.606 30.5352H109.202H112.829V23.361C112.86 15.5938 112.954 15.1788 114.611 14.4673C115.643 14.0226 116.956 14.4673 117.457 15.416C117.738 15.9496 117.863 18.173 117.863 23.3313V30.5352H121.303H124.742V23.4202C124.742 17.6097 124.836 16.1275 125.211 15.416C125.805 14.3487 127.056 13.9633 128.15 14.5562C129.62 15.3567 129.745 15.9496 129.745 23.4795V30.5352H133.341H136.937V23.1831C136.937 14.9416 136.718 13.6965 134.967 11.5324C132.247 8.15283 126.556 7.26346 122.835 9.6351L121.271 10.6727L120.427 9.93156C119.989 9.51652 118.989 9.01255 118.207 8.74574C116.738 8.27141 113.58 8.18247 112.235 8.56787Z" fill="white"/>
<path d="M82.9057 16.2165C83.0933 25.1101 83.2497 25.8512 85.6886 28.1636C87.6897 30.0609 89.9097 30.8613 93.1929 30.8613C94.5061 30.8613 96.1633 30.7427 96.82 30.5649C98.5397 30.1202 100.76 28.6676 101.729 27.3039C103.292 25.1694 103.48 23.9836 103.48 15.9497V8.59759H100.072H96.6324L96.5386 15.8311C96.4447 22.6199 96.4135 23.1239 95.7881 23.8946C95.0064 24.9026 93.8182 25.2287 92.4112 24.8729C90.2224 24.3097 90.1912 24.1911 90.0973 15.9793L90.0035 8.59759H86.4077H82.7806L82.9057 16.2165Z" fill="white"/>
<path d="M123.89 38.5159C123.079 38.668 122.399 39.2257 122.044 40.0116C121.851 40.4426 121.827 40.5862 121.827 41.3805C121.827 42.1833 121.851 42.3101 122.044 42.7495C122.515 43.7973 123.303 44.2536 124.732 44.3212L125.636 44.355L125.566 44.6086C125.481 44.955 125.358 45.0987 124.994 45.2761C124.4 45.5719 123.434 45.4451 122.538 44.9466C122.507 44.9297 122.492 45.3099 122.499 45.7916L122.523 46.662L122.947 46.831C123.28 46.9577 123.581 46.9915 124.338 47C125.28 47 125.319 46.9915 125.821 46.7211C126.431 46.3916 126.825 45.9353 127.018 45.3184C127.134 44.9466 127.157 44.5832 127.157 42.7748C127.157 40.3327 127.111 40.0623 126.539 39.3694C125.937 38.6342 124.933 38.3131 123.89 38.5159ZM125.033 40.2397C125.412 40.451 125.589 40.958 125.636 41.9045L125.674 42.7326H125.095C124.199 42.7326 123.743 42.496 123.519 41.9129C123.372 41.5411 123.388 41.2369 123.565 40.8144C123.82 40.189 124.492 39.9355 125.033 40.2397Z" fill="white"/>
<path d="M117.067 39.3305C116.206 39.574 115.57 40.061 115.2 40.77C114.999 41.1567 114.975 41.2713 114.975 41.9875C114.975 42.7323 114.991 42.8039 115.24 43.2551C115.723 44.1217 116.536 44.5872 117.702 44.6516C118.668 44.7089 118.716 44.6731 118.716 43.9211V43.3124H118.274C117.542 43.3124 117.059 43.0761 116.777 42.5819C116.238 41.6366 117.22 40.4048 118.306 40.6626C118.684 40.7485 119.078 41.1209 119.191 41.5005C119.239 41.6509 119.28 42.3957 119.28 43.1477V44.5299H120.173H121.066L121.01 42.9328C120.977 42.009 120.905 41.214 120.849 41.0422C120.591 40.2759 119.931 39.6671 119.078 39.3807C118.563 39.2088 117.59 39.1801 117.067 39.3305Z" fill="white"/>
<path d="M129.7 39.3303C128.948 39.5887 128.37 40.1126 128.089 40.7944C127.861 41.3542 127.861 42.4523 128.096 43.0264C128.514 44.0599 129.624 44.6699 131.068 44.6699C131.714 44.6627 132.147 44.5838 132.679 44.3685L133.044 44.225V43.5503V42.8829L132.557 43.0982C131.699 43.4786 130.658 43.5144 130.057 43.1771C129.829 43.0551 129.472 42.6389 129.472 42.5097C129.472 42.4738 130.308 42.4451 131.326 42.4451H133.188L133.234 42.0647C133.295 41.5911 133.165 40.8662 132.93 40.4356C132.512 39.6605 131.797 39.2729 130.726 39.237C130.232 39.2227 129.943 39.2442 129.7 39.3303ZM131.235 40.6222C131.463 40.737 131.752 41.0815 131.752 41.2537C131.752 41.3542 131.608 41.3686 130.612 41.3686C129.989 41.3686 129.472 41.347 129.472 41.3255C129.472 41.304 129.525 41.1748 129.594 41.0456C129.86 40.5145 130.62 40.3207 131.235 40.6222Z" fill="white"/>
<path d="M135.411 39.3677C134.728 39.6143 134.231 40.1873 134.086 40.9054C134.045 41.1085 134.01 42.0369 134.01 42.9654V44.6699H134.769H135.528V42.9799C135.528 41.0432 135.563 40.8764 136.032 40.6878C136.267 40.5935 136.322 40.6008 136.529 40.7023C136.991 40.9344 137.012 41.0215 137.033 42.9436L137.054 44.6699H137.82H138.579L138.551 42.7985L138.523 40.9199L138.296 40.4339C138.047 39.8972 137.661 39.5345 137.123 39.3387C136.708 39.1864 135.86 39.2009 135.411 39.3677Z" fill="white"/>
<path d="M141.519 39.2934C140.022 39.6398 139.149 40.9388 139.375 42.4832C139.508 43.3781 140.069 44.0926 140.942 44.4606C141.378 44.6483 141.503 44.6699 142.282 44.6699C142.999 44.6699 143.202 44.6411 143.506 44.5112L143.872 44.3596L143.896 43.6668C143.911 43.2843 143.911 42.974 143.903 42.974C143.903 42.974 143.709 43.0533 143.475 43.1544C142.68 43.5008 141.721 43.3492 141.269 42.8008C140.755 42.1729 141.02 41.1337 141.799 40.7584C142.197 40.5707 142.914 40.6068 143.397 40.8305L143.81 41.0254L143.787 40.3182L143.763 39.6181L143.374 39.4377C142.945 39.2428 142.064 39.1707 141.519 39.2934Z" fill="white"/>
<path d="M144.702 40.9922C144.743 42.9918 144.831 43.3716 145.379 43.9141C145.926 44.4566 146.522 44.6581 147.705 44.6814C148.221 44.6969 148.269 44.7124 148.245 44.8519C148.197 45.1386 147.826 45.4254 147.383 45.5184C146.868 45.6269 146.063 45.5107 145.435 45.2394L145.008 45.0534V45.8594V46.6577L145.274 46.743C146.264 47.053 147.488 47.084 148.341 46.8282C148.792 46.6887 148.977 46.5802 149.316 46.2624C149.992 45.6037 150 45.5804 150 42.1625V39.2329H149.114H148.229V41.248V43.2631H147.81C147.311 43.2631 146.9 43.0848 146.667 42.7748C146.514 42.5733 146.498 42.426 146.474 40.8915L146.449 39.2329H145.556H144.67L144.702 40.9922Z" fill="white"/>
<path d="M0 11.2407V14.3487L0.944922 14.5409C1.45113 14.6371 2.05858 14.7652 2.29481 14.8613C2.53104 14.9254 3.61095 16.8158 4.75836 19.0587C5.87201 21.3336 7.7956 24.858 9.0105 26.9086C11.2716 30.6895 11.2716 30.6895 12.5202 30.6895C13.7689 30.6895 13.8364 30.6254 16.1987 27.0689C20.687 20.4044 23.2181 14.7973 24.1293 9.60666L24.3655 8.26095H20.4846H16.6374L16.4011 10.2154C16.0299 13.3234 13.6676 19.7956 12.8914 19.7956C12.7227 19.7956 11.744 18.0975 10.6641 16.0468C9.58421 13.9642 8.26806 11.7534 7.72811 11.1126C6.47946 9.60666 4.45463 8.67748 1.95734 8.38911L0 8.16483V11.2407Z" fill="white"/>
</svg>
