<svg width="150" height="47" viewBox="0 0 150 47" fill="none" xmlns="http://www.w3.org/2000/svg">
<path d="M141.35 24.643C138.23 27.8247 141.457 33.1458 145.546 31.555C147.482 30.787 148.827 28.5378 148.397 26.8373C147.536 23.3264 143.771 22.1196 141.35 24.643Z" fill="#F65E01"/>
<path d="M69.4605 11.6211L69.5543 23.2718L70.4611 25.1098C71.3679 27.0071 73.2127 28.9044 74.9637 29.7641C75.7454 30.1495 79.091 30.8314 80.2792 30.8314C80.5606 30.8314 80.6544 30.0902 80.6544 28.0743V25.2877L79.4663 24.9616C78.0592 24.5465 76.8085 23.3607 76.3082 21.9674C76.1206 21.4041 75.9642 19.4475 75.9642 17.6095V14.2892L78.3093 14.4374L80.6544 14.6153V11.5914V8.59726H78.9034C75.9642 8.59726 75.9642 8.59726 75.9642 4.00221V7.24792e-05H72.6811H69.3667L69.4605 11.6211Z" fill="black"/>
<path d="M32.7207 8.59724C29.5626 9.36802 26.5609 11.6804 25.2163 14.467C24.6535 15.6529 24.5284 16.394 24.5284 19.4178C24.5284 22.7085 24.591 23.0939 25.3727 24.6354C27.5614 28.8451 31.8139 30.9499 37.9737 30.8906C40.9441 30.861 44.54 30.0606 45.478 29.1712C45.8219 28.8154 45.947 28.0447 45.947 26.0584C45.947 24.6058 45.8845 23.42 45.8219 23.42C45.7594 23.42 45.1028 23.7461 44.3211 24.1611C41.2256 25.7916 36.1914 26.2363 33.7838 25.0801C32.6581 24.5169 31.595 23.5089 31.2511 22.6788C31.0322 22.0859 31.1885 22.0859 38.7241 21.9377L46.416 21.7895V18.9731C46.3848 14.0816 44.54 11.0282 40.5689 9.33837C38.4114 8.41936 34.9094 8.09326 32.7207 8.59724ZM38.0362 14.2002C38.9743 14.6153 39.5371 15.1192 40.0061 15.979L40.6315 17.1944H35.7849H30.9071L31.0947 16.5126C31.8764 14.0816 35.1908 12.9848 38.0362 14.2002Z" fill="black"/>
<path d="M55.9527 8.74544C53.9203 9.36799 51.3251 11.1764 50.1056 12.8365C48.7298 14.7635 48.1357 16.809 48.1357 19.566C48.1357 22.2341 48.6986 24.2204 49.9806 26.1473C52.8572 30.4459 60.3928 32.2839 65.5207 29.9123L66.8965 29.2897V26.2066V23.1235L65.5207 24.0721C64.3326 24.8429 63.7697 25.0208 61.7686 25.1394C58.8919 25.3173 56.9846 24.5761 55.7339 22.7974C53.0135 18.8842 56.0778 13.9334 61.2683 13.9334C62.4877 13.9334 65.2706 15.0599 65.9272 15.8011C66.7402 16.7794 66.9278 16.2754 66.834 13.133L66.7402 9.93126L64.8641 9.21976C62.519 8.30076 58.1102 8.09324 55.9527 8.74544Z" fill="black"/>
<path d="M112.235 8.56762C109.859 9.27911 107.67 11.1468 106.544 13.4888C105.888 14.8821 105.825 15.4157 105.731 22.7382L105.606 30.5349H109.202H112.829V23.3607C112.86 15.5936 112.954 15.1786 114.611 14.4671C115.643 14.0224 116.956 14.4671 117.457 15.4157C117.738 15.9493 117.863 18.1728 117.863 23.3311V30.5349H121.303H124.742V23.42C124.742 17.6095 124.836 16.1272 125.211 15.4157C125.805 14.3485 127.056 13.9631 128.15 14.556C129.62 15.3564 129.745 15.9493 129.745 23.4793V30.5349H133.341H136.937V23.1828C136.937 14.9414 136.718 13.6963 134.967 11.5322C132.247 8.15258 126.556 7.26322 122.835 9.63486L121.271 10.6724L120.427 9.93131C119.989 9.51628 118.989 9.0123 118.207 8.74549C116.738 8.27116 113.58 8.18223 112.235 8.56762Z" fill="black"/>
<path d="M82.9057 16.2162C83.0933 25.1098 83.2497 25.8509 85.6886 28.1633C87.6897 30.0606 89.9097 30.861 93.1929 30.861C94.5061 30.861 96.1633 30.7424 96.82 30.5646C98.5397 30.1199 100.76 28.6673 101.729 27.3036C103.292 25.1691 103.48 23.9833 103.48 15.9494V8.59728H100.072H96.6324L96.5386 15.8308C96.4447 22.6196 96.4135 23.1236 95.7881 23.8943C95.0064 24.9023 93.8182 25.2284 92.4112 24.8726C90.2224 24.3094 90.1912 24.1908 90.0973 15.979L90.0035 8.59728H86.4077H82.7806L82.9057 16.2162Z" fill="black"/>
<path d="M123.89 38.5159C123.079 38.668 122.399 39.2257 122.044 40.0116C121.851 40.4426 121.827 40.5862 121.827 41.3805C121.827 42.1833 121.851 42.3101 122.044 42.7495C122.515 43.7973 123.303 44.2536 124.732 44.3212L125.636 44.355L125.566 44.6086C125.481 44.955 125.358 45.0987 124.994 45.2761C124.4 45.5719 123.434 45.4451 122.538 44.9466C122.507 44.9297 122.492 45.3099 122.499 45.7916L122.523 46.662L122.947 46.831C123.28 46.9577 123.581 46.9915 124.338 47C125.28 47 125.319 46.9915 125.821 46.7211C126.431 46.3916 126.825 45.9353 127.018 45.3184C127.134 44.9466 127.157 44.5832 127.157 42.7748C127.157 40.3327 127.111 40.0623 126.539 39.3694C125.937 38.6342 124.933 38.3131 123.89 38.5159ZM125.033 40.2397C125.412 40.451 125.589 40.958 125.636 41.9045L125.674 42.7326H125.095C124.199 42.7326 123.743 42.496 123.519 41.9129C123.372 41.5411 123.388 41.2369 123.565 40.8144C123.82 40.189 124.492 39.9355 125.033 40.2397Z" fill="black"/>
<path d="M117.067 39.3305C116.206 39.574 115.57 40.061 115.2 40.77C114.999 41.1567 114.975 41.2713 114.975 41.9874C114.975 42.7322 114.991 42.8039 115.24 43.255C115.723 44.1216 116.536 44.5871 117.702 44.6516C118.668 44.7089 118.716 44.673 118.716 43.9211V43.3123H118.274C117.542 43.3123 117.059 43.076 116.777 42.5818C116.238 41.6365 117.22 40.4047 118.306 40.6625C118.684 40.7485 119.078 41.1209 119.191 41.5004C119.239 41.6508 119.28 42.3956 119.28 43.1476V44.5298H120.173H121.066L121.01 42.9328C120.977 42.0089 120.905 41.214 120.849 41.0421C120.591 40.2758 119.931 39.6671 119.078 39.3806C118.563 39.2087 117.59 39.1801 117.067 39.3305Z" fill="black"/>
<path d="M129.7 39.3303C128.948 39.5886 128.37 40.1126 128.089 40.7944C127.861 41.3542 127.861 42.4522 128.096 43.0264C128.514 44.0598 129.624 44.6699 131.068 44.6699C131.714 44.6627 132.147 44.5837 132.679 44.3684L133.044 44.2249V43.5503V42.8828L132.557 43.0981C131.699 43.4785 130.658 43.5144 130.057 43.1771C129.829 43.0551 129.472 42.6388 129.472 42.5096C129.472 42.4737 130.308 42.445 131.326 42.445H133.188L133.234 42.0647C133.295 41.591 133.165 40.8661 132.93 40.4355C132.512 39.6604 131.797 39.2729 130.726 39.237C130.232 39.2226 129.943 39.2442 129.7 39.3303ZM131.235 40.6221C131.463 40.7369 131.752 41.0814 131.752 41.2537C131.752 41.3542 131.608 41.3685 130.612 41.3685C129.989 41.3685 129.472 41.347 129.472 41.3254C129.472 41.3039 129.525 41.1747 129.594 41.0455C129.86 40.5145 130.62 40.3207 131.235 40.6221Z" fill="black"/>
<path d="M135.411 39.3676C134.728 39.6142 134.231 40.1873 134.086 40.9053C134.045 41.1084 134.01 42.0369 134.01 42.9653V44.6699H134.769H135.528V42.9798C135.528 41.0432 135.563 40.8763 136.032 40.6877C136.267 40.5935 136.322 40.6007 136.529 40.7023C136.991 40.9344 137.012 41.0214 137.033 42.9436L137.054 44.6699H137.82H138.579L138.551 42.7985L138.523 40.9199L138.296 40.4339C138.047 39.8971 137.661 39.5345 137.123 39.3386C136.708 39.1863 135.86 39.2008 135.411 39.3676Z" fill="black"/>
<path d="M141.519 39.2933C140.022 39.6397 139.149 40.9387 139.375 42.4831C139.508 43.378 140.069 44.0925 140.942 44.4606C141.378 44.6482 141.503 44.6699 142.282 44.6699C142.999 44.6699 143.202 44.641 143.506 44.5111L143.872 44.3595L143.896 43.6667C143.911 43.2842 143.911 42.9739 143.903 42.9739C143.903 42.9739 143.709 43.0533 143.475 43.1543C142.68 43.5007 141.721 43.3492 141.269 42.8007C140.755 42.1728 141.02 41.1336 141.799 40.7583C142.197 40.5707 142.914 40.6068 143.397 40.8305L143.81 41.0253L143.787 40.3181L143.763 39.6181L143.374 39.4376C142.945 39.2428 142.064 39.1706 141.519 39.2933Z" fill="black"/>
<path d="M144.702 40.9922C144.743 42.9918 144.831 43.3716 145.379 43.9141C145.926 44.4566 146.522 44.6581 147.705 44.6814C148.221 44.6969 148.269 44.7124 148.245 44.8519C148.197 45.1386 147.826 45.4254 147.383 45.5184C146.868 45.6269 146.063 45.5107 145.435 45.2394L145.008 45.0534V45.8594V46.6577L145.274 46.743C146.264 47.053 147.488 47.084 148.341 46.8282C148.792 46.6887 148.977 46.5802 149.316 46.2624C149.992 45.6037 150 45.5804 150 42.1625V39.2329H149.114H148.229V41.248V43.2631H147.81C147.311 43.2631 146.9 43.0848 146.667 42.7748C146.514 42.5733 146.498 42.426 146.474 40.8915L146.449 39.2329H145.556H144.67L144.702 40.9922Z" fill="black"/>
<path d="M0 11.2404V14.3483L0.944922 14.5406C1.45113 14.6367 2.05858 14.7648 2.29481 14.861C2.53104 14.9251 3.61095 16.8155 4.75836 19.0583C5.87201 21.3332 7.7956 24.8577 9.0105 26.9083C11.2716 30.6891 11.2716 30.6891 12.5202 30.6891C13.7689 30.6891 13.8364 30.625 16.1987 27.0685C20.687 20.404 23.2181 14.7969 24.1293 9.60629L24.3655 8.26058H20.4846H16.6374L16.4011 10.2151C16.0299 13.323 13.6676 19.7952 12.8914 19.7952C12.7227 19.7952 11.744 18.0971 10.6641 16.0465C9.58421 13.9638 8.26806 11.753 7.72811 11.1122C6.47946 9.60629 4.45463 8.67711 1.95734 8.38874L0 8.16446V11.2404Z" fill="black"/>
</svg>
